<svg width="1024" height="1366" viewBox="0 0 1024 1366" fill="none" xmlns="http://www.w3.org/2000/svg">
<g clip-path="url(#clip0)">
<rect width="1024" height="1366" fill="#0B1C2C"/>
<path d="M170.571 713.827L140 683.256L239.264 584H300.398L170.571 713.827ZM300.398 675.593H239.264L216.363 698.493L246.934 729.064" fill="#42A5F5" fill-opacity="0.8"/>
<path d="M216.362 759.627L239.262 782.527H300.397L246.933 729.064" fill="#0D47A1"/>
<path d="M185.863 729.08L216.386 698.549L246.909 729.072L216.386 759.603L185.863 729.08Z" fill="#42A5F5"/>
<path d="M216.387 759.603L246.91 729.08L251.171 733.341L220.648 763.864L216.387 759.603Z" fill="url(#paint0_linear)"/>
<path d="M216.362 759.627L261.721 743.956L246.933 729.056" fill="url(#paint1_linear)"/>
<path d="M355.719 647.257V669.975H348.911V616.991H379.843V623.503H355.719V640.893H377.475V647.257H355.719ZM392.458 616.991V669.975H385.65V616.991H392.458ZM431.833 669.975H425.321V664.943H425.025C423.989 666.719 422.386 668.199 420.215 669.383C418.094 670.567 415.874 671.159 413.555 671.159C409.115 671.159 405.686 669.901 403.269 667.385C400.901 664.82 399.717 661.194 399.717 656.507V633.715H406.525V656.063C406.673 661.983 409.658 664.943 415.479 664.943C418.192 664.943 420.462 663.858 422.287 661.687C424.112 659.467 425.025 656.828 425.025 653.769V633.715H431.833V669.975ZM453.737 670.567C450.777 670.567 448.31 669.654 446.337 667.829C444.413 666.004 443.426 663.463 443.377 660.207V639.931H437.013V633.715H443.377V622.615H450.185V633.715H459.065V639.931H450.185V657.987C450.185 660.404 450.653 662.057 451.591 662.945C452.528 663.784 453.589 664.203 454.773 664.203C455.315 664.203 455.833 664.154 456.327 664.055C456.869 663.907 457.363 663.734 457.807 663.537L459.953 669.605C458.177 670.246 456.105 670.567 453.737 670.567ZM479.897 670.567C476.937 670.567 474.47 669.654 472.497 667.829C470.573 666.004 469.586 663.463 469.537 660.207V639.931H463.173V633.715H469.537V622.615H476.345V633.715H485.225V639.931H476.345V657.987C476.345 660.404 476.813 662.057 477.751 662.945C478.688 663.784 479.749 664.203 480.933 664.203C481.475 664.203 481.993 664.154 482.487 664.055C483.029 663.907 483.523 663.734 483.967 663.537L486.113 669.605C484.337 670.246 482.265 670.567 479.897 670.567ZM506.88 671.159C501.552 671.159 497.161 669.334 493.708 665.683C490.254 662.032 488.528 657.42 488.528 651.845C488.528 646.32 490.205 641.732 493.56 638.081C496.914 634.381 501.206 632.531 506.436 632.531C511.813 632.531 516.08 634.282 519.238 637.785C522.444 641.238 524.048 646.098 524.048 652.363L523.974 653.103H495.484C495.582 656.655 496.766 659.516 499.036 661.687C501.305 663.858 504.018 664.943 507.176 664.943C511.517 664.943 514.921 662.772 517.388 658.431L523.456 661.391C521.828 664.45 519.558 666.842 516.648 668.569C513.786 670.296 510.53 671.159 506.88 671.159ZM496.002 647.479H516.796C516.598 644.963 515.562 642.891 513.688 641.263C511.862 639.586 509.396 638.747 506.288 638.747C503.722 638.747 501.502 639.536 499.628 641.115C497.802 642.694 496.594 644.815 496.002 647.479ZM536.341 669.975H529.533V633.715H536.045V639.635H536.341C537.032 637.711 538.438 636.083 540.559 634.751C542.73 633.37 544.851 632.679 546.923 632.679C548.897 632.679 550.574 632.975 551.955 633.567L549.883 640.153C549.045 639.808 547.713 639.635 545.887 639.635C543.322 639.635 541.077 640.671 539.153 642.743C537.279 644.815 536.341 647.232 536.341 649.995V669.975ZM572.38 669.975V616.991H588.586C596.677 616.991 603.164 619.433 608.048 624.317C612.981 629.201 615.448 635.59 615.448 643.483C615.448 651.426 612.981 657.839 608.048 662.723C603.164 667.558 596.677 669.975 588.586 669.975H572.38ZM579.188 623.503V663.463H588.586C594.753 663.463 599.612 661.712 603.164 658.209C606.716 654.657 608.492 649.748 608.492 643.483C608.492 637.267 606.716 632.383 603.164 628.831C599.612 625.279 594.753 623.503 588.586 623.503H579.188ZM626.578 658.875C626.578 660.651 627.318 662.131 628.798 663.315C630.327 664.499 632.103 665.091 634.126 665.091C636.987 665.091 639.528 664.03 641.748 661.909C644.017 659.788 645.152 657.296 645.152 654.435C643.031 652.758 640.071 651.919 636.272 651.919C633.509 651.919 631.191 652.585 629.316 653.917C627.491 655.249 626.578 656.902 626.578 658.875ZM635.384 632.531C640.416 632.531 644.387 633.888 647.298 636.601C650.209 639.265 651.664 642.94 651.664 647.627V669.975H645.152V664.943H644.856C642.044 669.087 638.295 671.159 633.608 671.159C629.612 671.159 626.257 669.975 623.544 667.607C620.88 665.239 619.548 662.279 619.548 658.727C619.548 654.978 620.954 651.993 623.766 649.773C626.627 647.553 630.426 646.443 635.162 646.443C639.207 646.443 642.537 647.183 645.152 648.663V647.109C645.152 644.741 644.215 642.743 642.34 641.115C640.465 639.438 638.27 638.599 635.754 638.599C631.955 638.599 628.946 640.202 626.726 643.409L620.732 639.635C624.037 634.899 628.921 632.531 635.384 632.531ZM690.292 633.715L667.574 685.959H660.544L668.98 667.681L654.032 633.715H661.432L672.236 659.763H672.384L682.892 633.715H690.292ZM717.507 669.975H710.699V616.991H717.507V669.975ZM726.264 633.715H732.776V638.747H733.072C734.108 636.971 735.686 635.491 737.808 634.307C739.978 633.123 742.223 632.531 744.542 632.531C748.982 632.531 752.386 633.814 754.754 636.379C757.171 638.895 758.38 642.496 758.38 647.183V669.975H751.572V647.627C751.424 641.707 748.439 638.747 742.618 638.747C739.904 638.747 737.635 639.857 735.81 642.077C733.984 644.248 733.072 646.862 733.072 649.921V669.975H726.264V633.715ZM781.911 664.943C785.266 664.943 788.004 663.734 790.125 661.317C792.345 658.9 793.455 655.742 793.455 651.845C793.455 648.046 792.345 644.914 790.125 642.447C787.954 639.98 785.216 638.747 781.911 638.747C778.655 638.747 775.917 639.98 773.697 642.447C771.477 644.914 770.367 648.046 770.367 651.845C770.367 655.693 771.477 658.826 773.697 661.243C775.917 663.71 778.655 664.943 781.911 664.943ZM780.801 671.159C776.065 671.159 771.995 669.284 768.591 665.535C765.236 661.736 763.559 657.173 763.559 651.845C763.559 646.517 765.236 641.954 768.591 638.155C771.995 634.406 776.065 632.531 780.801 632.531C783.465 632.531 785.882 633.098 788.053 634.233C790.273 635.368 791.975 636.872 793.159 638.747H793.455L793.159 633.715V616.991H799.967V669.975H793.455V664.943H793.159C791.975 666.818 790.273 668.322 788.053 669.457C785.882 670.592 783.465 671.159 780.801 671.159ZM816.334 621.209C816.334 622.541 815.865 623.676 814.928 624.613C813.99 625.55 812.856 626.019 811.524 626.019C810.192 626.019 809.057 625.55 808.12 624.613C807.182 623.676 806.714 622.541 806.714 621.209C806.714 619.877 807.182 618.742 808.12 617.805C809.057 616.868 810.192 616.399 811.524 616.399C812.856 616.399 813.99 616.868 814.928 617.805C815.865 618.742 816.334 619.877 816.334 621.209ZM814.928 633.715V669.975H808.12V633.715H814.928ZM827.644 658.875C827.644 660.651 828.384 662.131 829.864 663.315C831.393 664.499 833.169 665.091 835.192 665.091C838.053 665.091 840.594 664.03 842.814 661.909C845.083 659.788 846.218 657.296 846.218 654.435C844.097 652.758 841.137 651.919 837.338 651.919C834.575 651.919 832.257 652.585 830.382 653.917C828.557 655.249 827.644 656.902 827.644 658.875ZM836.45 632.531C841.482 632.531 845.453 633.888 848.364 636.601C851.275 639.265 852.73 642.94 852.73 647.627V669.975H846.218V664.943H845.922C843.11 669.087 839.361 671.159 834.674 671.159C830.678 671.159 827.323 669.975 824.61 667.607C821.946 665.239 820.614 662.279 820.614 658.727C820.614 654.978 822.02 651.993 824.832 649.773C827.693 647.553 831.492 646.443 836.228 646.443C840.273 646.443 843.603 647.183 846.218 648.663V647.109C846.218 644.741 845.281 642.743 843.406 641.115C841.531 639.438 839.336 638.599 836.82 638.599C833.021 638.599 830.012 640.202 827.792 643.409L821.798 639.635C825.103 634.899 829.987 632.531 836.45 632.531Z" fill="white"/>
<path d="M357.414 735.836C354.39 735.836 351.776 735.015 349.574 733.372C347.371 731.729 345.822 729.452 344.926 726.54L349.798 724.524C351.067 728.78 353.606 730.908 357.414 730.908C359.504 730.908 361.184 730.18 362.454 728.724C363.76 727.231 364.414 725.308 364.414 722.956V694.844H369.566V722.508C369.566 726.652 368.464 729.919 366.262 732.308C364.096 734.66 361.147 735.836 357.414 735.836ZM399.058 734.94H394.13V731.132H393.906C393.122 732.476 391.909 733.596 390.266 734.492C388.661 735.388 386.981 735.836 385.226 735.836C381.866 735.836 379.271 734.884 377.442 732.98C375.65 731.039 374.754 728.295 374.754 724.748V707.5H379.906V724.412C380.018 728.892 382.277 731.132 386.682 731.132C388.735 731.132 390.453 730.311 391.834 728.668C393.215 726.988 393.906 724.991 393.906 722.676V707.5H399.058V734.94ZM404.769 707.5H409.697V711.308H409.921C410.705 709.964 411.9 708.844 413.505 707.948C415.148 707.052 416.847 706.604 418.601 706.604C421.961 706.604 424.537 707.575 426.329 709.516C428.159 711.42 429.073 714.145 429.073 717.692V734.94H423.921V718.028C423.809 713.548 421.551 711.308 417.145 711.308C415.092 711.308 413.375 712.148 411.993 713.828C410.612 715.471 409.921 717.449 409.921 719.764V734.94H404.769V707.5ZM446.881 735.836C442.849 735.836 439.526 734.455 436.913 731.692C434.3 728.929 432.993 725.439 432.993 721.22C432.993 717.039 434.262 713.567 436.801 710.804C439.34 708.004 442.588 706.604 446.545 706.604C450.614 706.604 453.844 707.929 456.233 710.58C458.66 713.193 459.873 716.871 459.873 721.612L459.817 722.172H438.257C438.332 724.86 439.228 727.025 440.945 728.668C442.662 730.311 444.716 731.132 447.105 731.132C450.39 731.132 452.966 729.489 454.833 726.204L459.425 728.444C458.193 730.759 456.476 732.569 454.273 733.876C452.108 735.183 449.644 735.836 446.881 735.836ZM438.649 717.916H454.385C454.236 716.012 453.452 714.444 452.033 713.212C450.652 711.943 448.785 711.308 446.433 711.308C444.492 711.308 442.812 711.905 441.393 713.1C440.012 714.295 439.097 715.9 438.649 717.916ZM499.289 730.012V734.94H474.873V729.788L484.785 719.764C488.108 716.367 490.404 713.828 491.673 712.148C492.942 710.431 493.577 708.639 493.577 706.772C493.577 705.092 492.924 703.655 491.617 702.46C490.31 701.265 488.63 700.668 486.577 700.668C484.822 700.668 483.31 701.191 482.041 702.236C480.772 703.281 479.95 704.551 479.577 706.044L474.873 704.14C475.62 701.788 477.057 699.809 479.185 698.204C481.313 696.561 483.814 695.74 486.689 695.74C490.161 695.74 493.054 696.804 495.369 698.932C497.684 701.06 498.841 703.673 498.841 706.772C498.841 710.468 496.806 714.463 492.737 718.756L481.537 730.012H499.289ZM528.215 701.9L509.623 735.836L505.031 733.484L522.783 701.564H503.407L503.519 696.636H528.215V701.9ZM528.612 741.212L526.204 739.644L529.228 734.94C528.444 734.791 527.772 734.399 527.212 733.764C526.689 733.129 526.428 732.364 526.428 731.468C526.428 730.385 526.801 729.489 527.548 728.78C528.294 728.033 529.19 727.66 530.236 727.66C531.318 727.66 532.214 728.033 532.924 728.78C533.67 729.489 534.044 730.385 534.044 731.468C534.044 732.476 533.67 733.577 532.924 734.772L528.612 741.212ZM574.596 730.012V734.94H550.18V729.788L560.092 719.764C563.415 716.367 565.711 713.828 566.98 712.148C568.249 710.431 568.884 708.639 568.884 706.772C568.884 705.092 568.231 703.655 566.924 702.46C565.617 701.265 563.937 700.668 561.884 700.668C560.129 700.668 558.617 701.191 557.348 702.236C556.079 703.281 555.257 704.551 554.884 706.044L550.18 704.14C550.927 701.788 552.364 699.809 554.492 698.204C556.62 696.561 559.121 695.74 561.996 695.74C565.468 695.74 568.361 696.804 570.676 698.932C572.991 701.06 574.148 703.673 574.148 706.772C574.148 710.468 572.113 714.463 568.044 718.756L556.844 730.012H574.596ZM578.938 715.788C578.938 709.964 580.375 705.167 583.25 701.396C586.124 697.625 589.82 695.74 594.338 695.74C598.855 695.74 602.551 697.644 605.426 701.452C608.3 705.223 609.738 710.001 609.738 715.788C609.738 721.537 608.3 726.335 605.426 730.18C602.551 733.951 598.855 735.836 594.338 735.836C589.82 735.836 586.124 733.951 583.25 730.18C580.375 726.335 578.938 721.537 578.938 715.788ZM604.474 715.788C604.474 711.383 603.54 707.761 601.674 704.924C599.844 702.087 597.399 700.668 594.338 700.668C591.276 700.668 588.831 702.087 587.002 704.924C585.135 707.761 584.202 711.383 584.202 715.788C584.202 720.193 585.135 723.833 587.002 726.708C588.831 729.508 591.276 730.908 594.338 730.908C597.399 730.908 599.844 729.489 601.674 726.652C603.54 723.777 604.474 720.156 604.474 715.788ZM637.734 730.012V734.94H613.318V729.788L623.23 719.764C626.552 716.367 628.848 713.828 630.118 712.148C631.387 710.431 632.022 708.639 632.022 706.772C632.022 705.092 631.368 703.655 630.062 702.46C628.755 701.265 627.075 700.668 625.022 700.668C623.267 700.668 621.755 701.191 620.486 702.236C619.216 703.281 618.395 704.551 618.022 706.044L613.318 704.14C614.064 701.788 615.502 699.809 617.63 698.204C619.758 696.561 622.259 695.74 625.134 695.74C628.606 695.74 631.499 696.804 633.814 698.932C636.128 701.06 637.286 703.673 637.286 706.772C637.286 710.468 635.251 714.463 631.182 718.756L619.982 730.012H637.734ZM642.076 715.788C642.076 709.964 643.513 705.167 646.388 701.396C649.262 697.625 652.958 695.74 657.476 695.74C661.993 695.74 665.689 697.644 668.564 701.452C671.438 705.223 672.876 710.001 672.876 715.788C672.876 721.537 671.438 726.335 668.564 730.18C665.689 733.951 661.993 735.836 657.476 735.836C652.958 735.836 649.262 733.951 646.388 730.18C643.513 726.335 642.076 721.537 642.076 715.788ZM667.612 715.788C667.612 711.383 666.678 707.761 664.812 704.924C662.982 702.087 660.537 700.668 657.476 700.668C654.414 700.668 651.969 702.087 650.14 704.924C648.273 707.761 647.34 711.383 647.34 715.788C647.34 720.193 648.273 723.833 650.14 726.708C651.969 729.508 654.414 730.908 657.476 730.908C660.537 730.908 662.982 729.489 664.812 726.652C666.678 723.777 667.612 720.156 667.612 715.788Z" fill="white"/>
<mask id="path-8-inside-1" fill="white">
<path d="M737.038 323.278C730.15 323.278 724.547 317.67 724.547 310.782C724.547 303.894 730.15 298.291 737.038 298.291C743.927 298.291 749.53 303.893 749.53 310.782C749.53 317.671 743.927 323.278 737.038 323.278ZM598.962 323.278C592.074 323.278 586.471 317.67 586.471 310.782C586.471 303.894 592.073 298.291 598.962 298.291C605.85 298.291 611.453 303.893 611.453 310.782C611.453 317.671 605.851 323.278 598.962 323.278ZM741.518 248.029L766.485 204.788C767.172 203.595 767.358 202.178 767.001 200.848C766.645 199.518 765.775 198.383 764.584 197.693C763.39 197.006 761.973 196.821 760.643 197.177C759.313 197.534 758.179 198.403 757.489 199.595L732.21 243.381C712.877 234.56 691.167 229.645 668 229.645C644.833 229.645 623.123 234.56 603.791 243.381L578.511 199.595C577.821 198.403 576.687 197.534 575.357 197.177C574.027 196.821 572.61 197.006 571.416 197.693C570.224 198.383 569.354 199.517 568.997 200.847C568.641 202.178 568.827 203.595 569.515 204.788L594.482 248.029C551.611 271.345 522.29 314.747 518 366.023H818C813.707 314.748 784.386 271.345 741.518 248.028"/>
</mask>
<path d="M766.485 204.788L769.949 206.789L769.951 206.785L766.485 204.788ZM764.584 197.693L766.587 194.231L766.579 194.227L764.584 197.693ZM757.489 199.595L754.027 197.59L754.024 197.595L757.489 199.595ZM732.21 243.381L730.549 247.02L733.857 248.529L735.674 245.381L732.21 243.381ZM603.791 243.381L600.327 245.381L602.145 248.53L605.452 247.02L603.791 243.381ZM578.511 199.595L581.976 197.595L581.973 197.59L578.511 199.595ZM571.416 197.693L569.421 194.227L569.415 194.23L571.416 197.693ZM569.515 204.788L566.05 206.787L566.051 206.789L569.515 204.788ZM594.482 248.029L596.393 251.543L599.997 249.582L597.946 246.029L594.482 248.029ZM518 366.023L514.014 365.69L513.651 370.023H518V366.023ZM818 366.023V370.023H822.349L821.986 365.689L818 366.023ZM737.038 319.278C732.361 319.278 728.547 315.463 728.547 310.782H720.547C720.547 319.878 727.939 327.278 737.038 327.278V319.278ZM728.547 310.782C728.547 306.103 732.359 302.291 737.038 302.291V294.291C727.941 294.291 720.547 301.685 720.547 310.782H728.547ZM737.038 302.291C741.719 302.291 745.53 306.103 745.53 310.782H753.53C753.53 301.683 746.136 294.291 737.038 294.291V302.291ZM745.53 310.782C745.53 315.464 741.717 319.278 737.038 319.278V327.278C746.138 327.278 753.53 319.879 753.53 310.782H745.53ZM598.962 319.278C594.285 319.278 590.471 315.463 590.471 310.782H582.471C582.471 319.878 589.863 327.278 598.962 327.278V319.278ZM590.471 310.782C590.471 306.103 594.282 302.291 598.962 302.291V294.291C589.863 294.291 582.471 301.685 582.471 310.782H590.471ZM598.962 302.291C603.641 302.291 607.453 306.102 607.453 310.782H615.453C615.453 301.684 608.059 294.291 598.962 294.291V302.291ZM607.453 310.782C607.453 315.464 603.64 319.278 598.962 319.278V327.278C608.062 327.278 615.453 319.879 615.453 310.782H607.453ZM744.982 250.029L769.949 206.789L763.021 202.788L738.054 246.029L744.982 250.029ZM769.951 206.785C771.167 204.673 771.496 202.166 770.865 199.812L763.138 201.883C763.22 202.19 763.177 202.517 763.019 202.792L769.951 206.785ZM770.865 199.812C770.234 197.459 768.696 195.452 766.587 194.231L762.58 201.155C762.855 201.315 763.055 201.576 763.138 201.883L770.865 199.812ZM766.579 194.227C764.468 193.011 761.961 192.683 759.608 193.314L761.678 201.041C761.985 200.959 762.313 201.001 762.588 201.16L766.579 194.227ZM759.608 193.314C757.255 193.944 755.248 195.482 754.027 197.59L760.95 201.599C761.109 201.324 761.371 201.123 761.678 201.041L759.608 193.314ZM754.024 197.595L728.746 241.381L735.674 245.381L760.953 201.595L754.024 197.595ZM733.87 239.742C714.015 230.682 691.738 225.645 668 225.645V233.645C690.596 233.645 711.74 238.438 730.549 247.02L733.87 239.742ZM668 225.645C644.262 225.645 621.985 230.682 602.131 239.742L605.452 247.02C624.26 238.438 645.404 233.645 668 233.645V225.645ZM607.255 241.381L581.976 197.595L575.047 201.595L600.327 245.381L607.255 241.381ZM581.973 197.59C580.752 195.482 578.745 193.944 576.392 193.314L574.322 201.041C574.629 201.123 574.891 201.324 575.05 201.599L581.973 197.59ZM576.392 193.314C574.039 192.683 571.532 193.011 569.421 194.227L573.412 201.16C573.687 201.001 574.015 200.959 574.322 201.041L576.392 193.314ZM569.415 194.23C567.304 195.45 565.765 197.457 565.134 199.812L572.861 201.883C572.943 201.576 573.143 201.315 573.418 201.157L569.415 194.23ZM565.134 199.812C564.503 202.167 564.832 204.675 566.05 206.787L572.98 202.79C572.822 202.515 572.779 202.189 572.861 201.883L565.134 199.812ZM566.051 206.789L591.018 250.029L597.946 246.029L572.979 202.788L566.051 206.789ZM592.571 244.515C548.528 268.469 518.417 313.058 514.014 365.69L521.986 366.357C526.162 316.436 554.693 274.222 596.393 251.543L592.571 244.515ZM518 370.023H818V362.023H518V370.023ZM821.986 365.689C817.58 313.06 787.468 268.469 743.43 244.514L739.607 251.541C781.304 274.222 809.834 316.437 814.014 366.357L821.986 365.689Z" fill="white" fill-opacity="0.5" mask="url(#path-8-inside-1)"/>
<rect x="851" y="430" width="140" height="140" rx="15" stroke="white" stroke-opacity="0.5" stroke-width="4"/>
<circle cx="921" cy="500" r="51.5294" stroke="white" stroke-opacity="0.5" stroke-width="4"/>
<path d="M885.042 466.963H956.956V533.038H885.042V466.963Z" stroke="white" stroke-opacity="0.5" stroke-width="4"/>
<path d="M955.557 466.963L920.537 529.91L886.403 466.963H955.557Z" stroke="white" stroke-opacity="0.5" stroke-width="4"/>
<rect x="88.5" y="116.5" width="128.334" height="128.334" stroke="#FDFDFD" stroke-opacity="0.4" stroke-width="5"/>
<rect x="117.832" y="151.167" width="128.334" height="128.334" stroke="#FDFDFD" stroke-opacity="0.4" stroke-width="5"/>
<rect x="155.166" y="183.167" width="128.334" height="128.334" stroke="#FDFDFD" stroke-opacity="0.4" stroke-width="5"/>
<rect x="288" y="373" width="146" height="146" rx="18" stroke="white" stroke-opacity="0.4" stroke-width="4"/>
<path d="M334.879 472.121L319.786 457.029C317.999 455.191 316.884 452.597 316.884 450.063C316.884 448.89 317.547 447.055 318.045 445.999L331.976 416.976L334.879 472.121Z" stroke="white" stroke-opacity="0.4" stroke-width="4"/>
<path d="M386.543 419.877L371.451 404.785C370.133 403.462 367.388 401.883 365.066 401.883C363.07 401.883 361.112 402.282 359.842 403.043L331.979 416.975L386.543 419.877Z" stroke="white" stroke-opacity="0.4" stroke-width="4"/>
<path d="M352.874 490.115H389.444V474.442L360.322 474.442L337.201 474.442L352.874 490.115Z" stroke="white" stroke-opacity="0.4" stroke-width="4"/>
<path d="M331.979 463.994C331.979 468.65 332.562 469.792 334.881 472.12L337.203 474.442H389.446L363.904 445.419L331.979 416.976V463.994Z" stroke="white" stroke-opacity="0.4" stroke-width="4"/>
<path d="M378.416 416.976H331.979L389.446 474.443H405.118V438.453L386.543 419.878C383.934 417.259 381.617 416.976 378.416 416.976Z" stroke="white" stroke-opacity="0.4" stroke-width="4"/>
<path opacity="0.2" d="M386.543 419.878C383.666 417.001 381.306 416.976 377.836 416.976H331.979L332.559 417.556H377.836C379.571 417.556 383.941 417.266 386.543 419.878Z" stroke="white" stroke-opacity="0.4" stroke-width="4"/>
<rect x="-22.5" y="856.5" width="197" height="391.444" rx="18.5" stroke="white" stroke-opacity="0.5" stroke-width="3"/>
<rect x="42.667" y="877.667" width="66.6667" height="7.33333" rx="3.66667" fill="white" fill-opacity="0.5"/>
<rect x="234" y="967" width="350" height="52.5" stroke="white" stroke-opacity="0.5" stroke-width="4"/>
<line x1="259.999" y1="1019.5" x2="259.999" y2="986.25" stroke="white" stroke-opacity="0.5" stroke-width="4"/>
<line x1="284.498" y1="1019.5" x2="284.498" y2="1002.88" stroke="white" stroke-opacity="0.5" stroke-width="4"/>
<line x1="308.998" y1="1019.5" x2="308.998" y2="986.25" stroke="white" stroke-opacity="0.5" stroke-width="4"/>
<line x1="333.499" y1="1019.5" x2="333.499" y2="1002.88" stroke="white" stroke-opacity="0.5" stroke-width="4"/>
<line x1="358" y1="1019.5" x2="358" y2="986.25" stroke="white" stroke-opacity="0.5" stroke-width="4"/>
<line x1="382.499" y1="1019.5" x2="382.499" y2="1002.88" stroke="white" stroke-opacity="0.5" stroke-width="4"/>
<line x1="406.998" y1="1019.5" x2="406.998" y2="986.25" stroke="white" stroke-opacity="0.5" stroke-width="4"/>
<line x1="431.498" y1="1019.5" x2="431.498" y2="1002.88" stroke="white" stroke-opacity="0.5" stroke-width="4"/>
<line x1="455.999" y1="1019.5" x2="455.999" y2="986.25" stroke="white" stroke-opacity="0.5" stroke-width="4"/>
<line x1="480.5" y1="1019.5" x2="480.5" y2="1002.88" stroke="white" stroke-opacity="0.5" stroke-width="4"/>
<line x1="504.999" y1="1019.5" x2="504.999" y2="986.25" stroke="white" stroke-opacity="0.5" stroke-width="4"/>
<line x1="553.998" y1="1019.5" x2="553.998" y2="986.25" stroke="white" stroke-opacity="0.5" stroke-width="4"/>
<line x1="529.498" y1="1019.5" x2="529.498" y2="1002.88" stroke="white" stroke-opacity="0.5" stroke-width="4"/>
<circle cx="643" cy="1315" r="182.5" stroke="white" stroke-opacity="0.5" stroke-width="5"/>
<circle cx="643.001" cy="1315" r="139.808" stroke="white" stroke-opacity="0.5" stroke-width="5"/>
<circle cx="643" cy="1315" r="97.1154" stroke="white" stroke-opacity="0.5" stroke-width="5"/>
<circle cx="641.578" cy="1313.58" r="61.5385" stroke="white" stroke-opacity="0.5" stroke-width="5"/>
<g opacity="0.4">
<rect x="726" y="762" width="466" height="331.714" rx="13" stroke="white" stroke-width="4"/>
<path d="M724 780C724 768.954 732.954 760 744 760H1174C1185.05 760 1194 768.954 1194 780V813.043H724V780Z" fill="white"/>
<circle cx="745.488" cy="786.186" r="6.71429" fill="#F10909"/>
<circle cx="769.658" cy="786.186" r="6.71429" fill="#C4C4C4"/>
<circle cx="793.827" cy="786.186" r="6.71429" fill="#56C400"/>
</g>
</g>
<defs>
<linearGradient id="paint0_linear" x1="231.654" y1="744.336" x2="235.915" y2="748.597" gradientUnits="userSpaceOnUse">
<stop offset="0.2" stop-opacity="0.15"/>
<stop offset="0.85" stop-color="#616161" stop-opacity="0.01"/>
</linearGradient>
<linearGradient id="paint1_linear" x1="216.373" y1="744.342" x2="261.731" y2="744.342" gradientUnits="userSpaceOnUse">
<stop offset="0.2" stop-opacity="0.55"/>
<stop offset="0.85" stop-color="#616161" stop-opacity="0.01"/>
</linearGradient>
<clipPath id="clip0">
<rect width="1024" height="1366" fill="white"/>
</clipPath>
</defs>
</svg>
