<svg width="1498" height="276" viewBox="0 0 1498 276" fill="none" xmlns="http://www.w3.org/2000/svg">
<path d="M314.88 145.81V198H299.24V76.28H370.3V91.24H314.88V131.19H364.86V145.81H314.88ZM400.978 76.28V198H385.338V76.28H400.978ZM493.136 198H478.176V186.44H477.496C475.116 190.52 471.432 193.92 466.446 196.64C461.572 199.36 456.472 200.72 451.146 200.72C440.946 200.72 433.069 197.83 427.516 192.05C422.076 186.157 419.356 177.827 419.356 167.06V114.7H434.996V166.04C435.336 179.64 442.192 186.44 455.566 186.44C461.799 186.44 467.012 183.947 471.206 178.96C475.399 173.86 477.496 167.797 477.496 160.77V114.7H493.136V198ZM545.154 199.36C538.354 199.36 532.688 197.263 528.154 193.07C523.734 188.877 521.468 183.04 521.354 175.56V128.98H506.734V114.7H521.354V89.2H536.994V114.7H557.394V128.98H536.994V170.46C536.994 176.013 538.071 179.81 540.224 181.85C542.378 183.777 544.814 184.74 547.534 184.74C548.781 184.74 549.971 184.627 551.104 184.4C552.351 184.06 553.484 183.663 554.504 183.21L559.434 197.15C555.354 198.623 550.594 199.36 545.154 199.36ZM603.552 199.36C596.752 199.36 591.085 197.263 586.552 193.07C582.132 188.877 579.865 183.04 579.752 175.56V128.98H565.132V114.7H579.752V89.2H595.392V114.7H615.792V128.98H595.392V170.46C595.392 176.013 596.469 179.81 598.622 181.85C600.775 183.777 603.212 184.74 605.932 184.74C607.179 184.74 608.369 184.627 609.502 184.4C610.749 184.06 611.882 183.663 612.902 183.21L617.832 197.15C613.752 198.623 608.992 199.36 603.552 199.36ZM667.22 200.72C654.98 200.72 644.893 196.527 636.96 188.14C629.026 179.753 625.06 169.157 625.06 156.35C625.06 143.657 628.913 133.117 636.62 124.73C644.326 116.23 654.186 111.98 666.2 111.98C678.553 111.98 688.356 116.003 695.61 124.05C702.976 131.983 706.66 143.147 706.66 157.54L706.49 159.24H641.04C641.266 167.4 643.986 173.973 649.2 178.96C654.413 183.947 660.646 186.44 667.9 186.44C677.873 186.44 685.693 181.453 691.36 171.48L705.3 178.28C701.56 185.307 696.346 190.803 689.66 194.77C683.086 198.737 675.606 200.72 667.22 200.72ZM642.23 146.32H690C689.546 140.54 687.166 135.78 682.86 132.04C678.666 128.187 673 126.26 665.86 126.26C659.966 126.26 654.866 128.073 650.56 131.7C646.366 135.327 643.59 140.2 642.23 146.32ZM736.602 198H720.962V114.7H735.922V128.3H736.602C738.189 123.88 741.419 120.14 746.292 117.08C751.279 113.907 756.152 112.32 760.912 112.32C765.446 112.32 769.299 113 772.472 114.36L767.712 129.49C765.786 128.697 762.726 128.3 758.532 128.3C752.639 128.3 747.482 130.68 743.062 135.44C738.756 140.2 736.602 145.753 736.602 152.1V198ZM822.794 198V76.28H860.024C878.61 76.28 893.514 81.89 904.734 93.11C916.067 104.33 921.734 119.007 921.734 137.14C921.734 155.387 916.067 170.12 904.734 181.34C893.514 192.447 878.61 198 860.024 198H822.794ZM838.434 91.24V183.04H860.024C874.19 183.04 885.354 179.017 893.514 170.97C901.674 162.81 905.754 151.533 905.754 137.14C905.754 122.86 901.674 111.64 893.514 103.48C885.354 95.32 874.19 91.24 860.024 91.24H838.434ZM949.003 172.5C949.003 176.58 950.703 179.98 954.103 182.7C957.616 185.42 961.696 186.78 966.343 186.78C972.916 186.78 978.753 184.343 983.853 179.47C989.066 174.597 991.673 168.873 991.673 162.3C986.799 158.447 979.999 156.52 971.273 156.52C964.926 156.52 959.599 158.05 955.293 161.11C951.099 164.17 949.003 167.967 949.003 172.5ZM969.233 111.98C980.793 111.98 989.916 115.097 996.603 121.33C1003.29 127.45 1006.63 135.893 1006.63 146.66V198H991.673V186.44H990.993C984.533 195.96 975.919 200.72 965.153 200.72C955.973 200.72 948.266 198 942.033 192.56C935.913 187.12 932.853 180.32 932.853 172.16C932.853 163.547 936.083 156.69 942.543 151.59C949.116 146.49 957.843 143.94 968.723 143.94C978.016 143.94 985.666 145.64 991.673 149.04V145.47C991.673 140.03 989.519 135.44 985.213 131.7C980.906 127.847 975.863 125.92 970.083 125.92C961.356 125.92 954.443 129.603 949.343 136.97L935.573 128.3C943.166 117.42 954.386 111.98 969.233 111.98ZM1097.07 114.7L1044.88 234.72H1028.73L1048.11 192.73L1013.77 114.7H1030.77L1055.59 174.54H1055.93L1080.07 114.7H1097.07ZM1162.99 198H1147.35V76.28H1162.99V198ZM1184.81 114.7H1199.77V126.26H1200.45C1202.83 122.18 1206.46 118.78 1211.33 116.06C1216.32 113.34 1221.47 111.98 1226.8 111.98C1237 111.98 1244.82 114.927 1250.26 120.82C1255.81 126.6 1258.59 134.873 1258.59 145.64V198H1242.95V146.66C1242.61 133.06 1235.75 126.26 1222.38 126.26C1216.15 126.26 1210.93 128.81 1206.74 133.91C1202.55 138.897 1200.45 144.903 1200.45 151.93V198H1184.81V114.7ZM1314.35 186.44C1322.06 186.44 1328.35 183.663 1333.22 178.11C1338.32 172.557 1340.87 165.303 1340.87 156.35C1340.87 147.623 1338.32 140.427 1333.22 134.76C1328.23 129.093 1321.94 126.26 1314.35 126.26C1306.87 126.26 1300.58 129.093 1295.48 134.76C1290.38 140.427 1287.83 147.623 1287.83 156.35C1287.83 165.19 1290.38 172.387 1295.48 177.94C1300.58 183.607 1306.87 186.44 1314.35 186.44ZM1311.8 200.72C1300.92 200.72 1291.57 196.413 1283.75 187.8C1276.04 179.073 1272.19 168.59 1272.19 156.35C1272.19 144.11 1276.04 133.627 1283.75 124.9C1291.57 116.287 1300.92 111.98 1311.8 111.98C1317.92 111.98 1323.47 113.283 1328.46 115.89C1333.56 118.497 1337.47 121.953 1340.19 126.26H1340.87L1340.19 114.7V76.28H1355.83V198H1340.87V186.44H1340.19C1337.47 190.747 1333.56 194.203 1328.46 196.81C1323.47 199.417 1317.92 200.72 1311.8 200.72ZM1395.13 85.97C1395.13 89.03 1394.05 91.6367 1391.9 93.79C1389.74 95.9433 1387.14 97.02 1384.08 97.02C1381.02 97.02 1378.41 95.9433 1376.26 93.79C1374.1 91.6367 1373.03 89.03 1373.03 85.97C1373.03 82.91 1374.1 80.3033 1376.26 78.15C1378.41 75.9967 1381.02 74.92 1384.08 74.92C1387.14 74.92 1389.74 75.9967 1391.9 78.15C1394.05 80.3033 1395.13 82.91 1395.13 85.97ZM1391.9 114.7V198H1376.26V114.7H1391.9ZM1422.81 172.5C1422.81 176.58 1424.51 179.98 1427.91 182.7C1431.42 185.42 1435.5 186.78 1440.15 186.78C1446.72 186.78 1452.56 184.343 1457.66 179.47C1462.87 174.597 1465.48 168.873 1465.48 162.3C1460.61 158.447 1453.81 156.52 1445.08 156.52C1438.73 156.52 1433.41 158.05 1429.1 161.11C1424.91 164.17 1422.81 167.967 1422.81 172.5ZM1443.04 111.98C1454.6 111.98 1463.72 115.097 1470.41 121.33C1477.1 127.45 1480.44 135.893 1480.44 146.66V198H1465.48V186.44H1464.8C1458.34 195.96 1449.73 200.72 1438.96 200.72C1429.78 200.72 1422.07 198 1415.84 192.56C1409.72 187.12 1406.66 180.32 1406.66 172.16C1406.66 163.547 1409.89 156.69 1416.35 151.59C1422.92 146.49 1431.65 143.94 1442.53 143.94C1451.82 143.94 1459.47 145.64 1465.48 149.04V145.47C1465.48 140.03 1463.33 135.44 1459.02 131.7C1454.71 127.847 1449.67 125.92 1443.89 125.92C1435.16 125.92 1428.25 129.603 1423.15 136.97L1409.38 128.3C1416.97 117.42 1428.19 111.98 1443.04 111.98Z" fill="white"/>
<path d="M42.4452 180.253L0 137.808L137.819 0H222.698L42.4452 180.253ZM222.698 127.169H137.819L106.024 158.963L148.469 201.409" fill="#42A5F5" fill-opacity="0.8"/>
<path d="M106.024 243.843L137.819 275.638H222.698L148.469 201.409" fill="#0D47A1"/>
<path d="M63.6792 201.431L106.058 159.042L148.436 201.42L106.058 243.809L63.6792 201.431Z" fill="#42A5F5"/>
<path d="M106.057 243.809L148.435 201.431L154.351 207.346L111.973 249.725L106.057 243.809Z" fill="url(#paint0_linear)"/>
<path d="M106.024 243.843L169.001 222.085L148.469 201.397" fill="url(#paint1_linear)"/>
<defs>
<linearGradient id="paint0_linear" x1="127.254" y1="222.612" x2="133.17" y2="228.528" gradientUnits="userSpaceOnUse">
<stop offset="0.2" stop-opacity="0.15"/>
<stop offset="0.85" stop-color="#616161" stop-opacity="0.01"/>
</linearGradient>
<linearGradient id="paint1_linear" x1="106.039" y1="222.621" x2="169.015" y2="222.621" gradientUnits="userSpaceOnUse">
<stop offset="0.2" stop-opacity="0.55"/>
<stop offset="0.85" stop-color="#616161" stop-opacity="0.01"/>
</linearGradient>
</defs>
</svg>
