<svg width="4000" height="2250" viewBox="0 0 4000 2250" fill="none" xmlns="http://www.w3.org/2000/svg">
<g clip-path="url(#clip0)">
<rect width="4000" height="2250" fill="#0B1C2C"/>
<rect x="213" y="1375" width="490" height="976.111" rx="35" stroke="white" stroke-opacity="0.5" stroke-width="10"/>
<rect x="374.667" y="1426.67" width="166.667" height="18.3333" rx="9.16667" fill="white" fill-opacity="0.5"/>
<rect x="296" y="202" width="323.332" height="323.332" stroke="#FDFDFD" stroke-opacity="0.4" stroke-width="10"/>
<rect x="369.333" y="288.667" width="323.332" height="323.332" stroke="#FDFDFD" stroke-opacity="0.4" stroke-width="10"/>
<rect x="462.667" y="368.666" width="323.332" height="323.332" stroke="#FDFDFD" stroke-opacity="0.4" stroke-width="10"/>
<rect x="1296" y="179" width="388" height="388" rx="64" stroke="white" stroke-opacity="0.4" stroke-width="12"/>
<path d="M1422.33 440.669L1383.23 401.572C1378.6 396.811 1375.71 390.091 1375.71 383.527C1375.71 380.488 1377.43 375.734 1378.72 373L1414.81 297.812L1422.33 440.669Z" stroke="white" stroke-opacity="0.4" stroke-width="7"/>
<path d="M1556.17 305.329L1517.07 266.232C1513.65 262.804 1506.54 258.714 1500.53 258.714C1495.36 258.714 1490.28 259.748 1486.99 261.72L1414.81 297.811L1556.17 305.329Z" stroke="white" stroke-opacity="0.4" stroke-width="7"/>
<path d="M1468.95 487.283H1563.68V446.683L1488.24 446.683L1428.34 446.683L1468.95 487.283Z" stroke="white" stroke-opacity="0.4" stroke-width="7"/>
<path d="M1414.81 419.615C1414.81 431.678 1416.32 434.636 1422.33 440.667L1428.35 446.682H1563.68L1497.52 371.496L1414.81 297.812V419.615Z" stroke="white" stroke-opacity="0.4" stroke-width="7"/>
<path d="M1535.11 297.812H1414.81L1563.68 446.684H1604.28V353.451L1556.17 305.33C1549.41 298.545 1543.4 297.812 1535.11 297.812Z" stroke="white" stroke-opacity="0.4" stroke-width="7"/>
<path opacity="0.2" d="M1556.17 305.33C1548.71 297.877 1542.6 297.812 1533.61 297.812H1414.81L1416.32 299.315H1533.61C1538.1 299.315 1549.42 298.565 1556.17 305.33Z" stroke="white" stroke-opacity="0.4" stroke-width="7"/>
<rect x="1028" y="1652" width="1200" height="180" stroke="white" stroke-opacity="0.5" stroke-width="7"/>
<line x1="1120.5" y1="1832" x2="1120.5" y2="1718" stroke="white" stroke-opacity="0.5" stroke-width="7"/>
<line x1="1204.5" y1="1832" x2="1204.5" y2="1775" stroke="white" stroke-opacity="0.5" stroke-width="7"/>
<line x1="1288.5" y1="1832" x2="1288.5" y2="1718" stroke="white" stroke-opacity="0.5" stroke-width="7"/>
<line x1="1372.5" y1="1832" x2="1372.5" y2="1775" stroke="white" stroke-opacity="0.5" stroke-width="7"/>
<line x1="1456.5" y1="1832" x2="1456.5" y2="1718" stroke="white" stroke-opacity="0.5" stroke-width="7"/>
<line x1="1540.5" y1="1832" x2="1540.5" y2="1775" stroke="white" stroke-opacity="0.5" stroke-width="7"/>
<line x1="1624.5" y1="1832" x2="1624.5" y2="1718" stroke="white" stroke-opacity="0.5" stroke-width="7"/>
<line x1="1708.5" y1="1832" x2="1708.5" y2="1775" stroke="white" stroke-opacity="0.5" stroke-width="7"/>
<line x1="1792.5" y1="1832" x2="1792.5" y2="1718" stroke="white" stroke-opacity="0.5" stroke-width="7"/>
<line x1="1876.5" y1="1832" x2="1876.5" y2="1775" stroke="white" stroke-opacity="0.5" stroke-width="7"/>
<line x1="1960.5" y1="1832" x2="1960.5" y2="1718" stroke="white" stroke-opacity="0.5" stroke-width="7"/>
<line x1="2128.5" y1="1832" x2="2128.5" y2="1718" stroke="white" stroke-opacity="0.5" stroke-width="7"/>
<line x1="2044.5" y1="1832" x2="2044.5" y2="1775" stroke="white" stroke-opacity="0.5" stroke-width="7"/>
<rect x="3306" y="342" width="500" height="500" rx="70" stroke="white" stroke-opacity="0.5" stroke-width="12"/>
<circle cx="3556" cy="592" r="185.176" stroke="white" stroke-opacity="0.5" stroke-width="12"/>
<path d="M3426.44 472.867H3685.56V711.134H3426.44V472.867Z" stroke="white" stroke-opacity="0.5" stroke-width="12"/>
<path d="M3681.36 472.867L3554.33 701.196L3430.52 472.867H3681.36Z" stroke="white" stroke-opacity="0.5" stroke-width="12"/>
<mask id="path-31-inside-1" fill="white">
<path d="M2777.09 575.649C2761.02 575.649 2747.94 562.564 2747.94 546.492C2747.94 530.419 2761.02 517.345 2777.09 517.345C2793.16 517.345 2806.24 530.417 2806.24 546.492C2806.24 562.567 2793.16 575.649 2777.09 575.649ZM2454.91 575.649C2438.84 575.649 2425.77 562.564 2425.77 546.492C2425.77 530.419 2438.84 517.345 2454.91 517.345C2470.98 517.345 2484.06 530.417 2484.06 546.492C2484.06 562.567 2470.99 575.649 2454.91 575.649ZM2787.54 400.067L2845.8 299.173C2847.4 296.389 2847.83 293.082 2847 289.978C2846.17 286.874 2844.14 284.227 2841.36 282.618C2838.58 281.015 2835.27 280.582 2832.17 281.414C2829.06 282.245 2826.42 284.274 2824.81 287.054L2765.82 389.223C2720.71 368.64 2670.06 357.172 2616 357.172C2561.94 357.172 2511.29 368.64 2466.18 389.223L2407.19 287.054C2405.58 284.274 2402.94 282.245 2399.83 281.414C2396.73 280.582 2393.42 281.015 2390.64 282.618C2387.86 284.226 2385.83 286.873 2384.99 289.977C2384.16 293.082 2384.6 296.389 2386.2 299.173L2444.46 400.067C2344.42 454.473 2276.01 555.743 2266 675.387H2966C2955.98 555.746 2887.57 454.473 2787.54 400.064"/>
</mask>
<path d="M2845.8 299.173L2854.46 304.173L2854.46 304.164L2845.8 299.173ZM2841.36 282.618L2846.37 273.963L2846.36 273.957L2846.35 273.951L2841.36 282.618ZM2824.81 287.054L2816.15 282.043L2816.15 282.054L2824.81 287.054ZM2765.82 389.223L2761.67 398.321L2769.94 402.094L2774.48 394.223L2765.82 389.223ZM2466.18 389.223L2457.52 394.223L2462.06 402.094L2470.33 398.321L2466.18 389.223ZM2407.19 287.054L2415.85 282.054L2415.85 282.043L2407.19 287.054ZM2390.64 282.618L2385.65 273.951L2385.64 273.955L2385.63 273.96L2390.64 282.618ZM2386.2 299.173L2377.54 304.169L2377.54 304.173L2386.2 299.173ZM2444.46 400.067L2449.24 408.852L2458.25 403.951L2453.12 395.067L2444.46 400.067ZM2266 675.387L2256.03 674.554L2255.13 685.387H2266V675.387ZM2966 675.387V685.387H2976.87L2975.97 674.553L2966 675.387ZM2777.09 565.649C2766.54 565.649 2757.94 557.046 2757.94 546.492H2737.94C2737.94 568.082 2755.49 585.649 2777.09 585.649V565.649ZM2757.94 546.492C2757.94 535.942 2766.54 527.345 2777.09 527.345V507.345C2755.49 507.345 2737.94 524.897 2737.94 546.492H2757.94ZM2777.09 527.345C2787.64 527.345 2796.24 535.941 2796.24 546.492H2816.24C2816.24 524.893 2798.69 507.345 2777.09 507.345V527.345ZM2796.24 546.492C2796.24 557.047 2787.64 565.649 2777.09 565.649V585.649C2798.69 585.649 2816.24 568.086 2816.24 546.492H2796.24ZM2454.91 565.649C2444.37 565.649 2435.77 557.046 2435.77 546.492H2415.77C2415.77 568.082 2433.31 585.649 2454.91 585.649V565.649ZM2435.77 546.492C2435.77 535.942 2444.36 527.345 2454.91 527.345V507.345C2433.31 507.345 2415.77 524.897 2415.77 546.492H2435.77ZM2454.91 527.345C2465.46 527.345 2474.06 535.94 2474.06 546.492H2494.06C2494.06 524.893 2476.51 507.345 2454.91 507.345V527.345ZM2474.06 546.492C2474.06 557.049 2465.46 565.649 2454.91 565.649V585.649C2476.51 585.649 2494.06 568.085 2494.06 546.492H2474.06ZM2796.2 405.067L2854.46 304.173L2837.14 294.173L2778.88 395.067L2796.2 405.067ZM2854.46 304.164C2857.39 299.084 2858.18 293.052 2856.66 287.39L2837.34 292.566C2837.49 293.112 2837.41 293.693 2837.13 294.182L2854.46 304.164ZM2856.66 287.39C2855.15 281.728 2851.44 276.899 2846.37 273.963L2836.35 291.273C2836.84 291.556 2837.2 292.021 2837.34 292.566L2856.66 287.39ZM2846.35 273.951C2841.27 271.027 2835.24 270.237 2829.58 271.754L2834.76 291.073C2835.3 290.926 2835.88 291.003 2836.37 291.285L2846.35 273.951ZM2829.58 271.754C2823.92 273.271 2819.09 276.971 2816.15 282.043L2833.46 292.065C2833.74 291.576 2834.21 291.219 2834.76 291.073L2829.58 271.754ZM2816.15 282.054L2757.16 384.223L2774.48 394.223L2833.47 292.054L2816.15 282.054ZM2769.97 380.126C2723.56 358.946 2671.48 347.172 2616 347.172V367.172C2668.63 367.172 2717.87 378.334 2761.67 398.321L2769.97 380.126ZM2616 347.172C2560.52 347.172 2508.44 358.946 2462.03 380.126L2470.33 398.321C2514.13 378.334 2563.37 367.172 2616 367.172V347.172ZM2474.84 384.223L2415.85 282.054L2398.53 292.054L2457.52 394.223L2474.84 384.223ZM2415.85 282.043C2412.91 276.971 2408.08 273.271 2402.42 271.754L2397.24 291.073C2397.79 291.219 2398.26 291.576 2398.54 292.065L2415.85 282.043ZM2402.42 271.754C2396.76 270.237 2390.73 271.027 2385.65 273.951L2395.63 291.285C2396.12 291.003 2396.7 290.926 2397.24 291.073L2402.42 271.754ZM2385.63 273.96C2380.56 276.894 2376.85 281.724 2375.33 287.389L2394.65 292.566C2394.8 292.022 2395.15 291.558 2395.64 291.276L2385.63 273.96ZM2375.33 287.389C2373.82 293.054 2374.61 299.089 2377.54 304.169L2394.86 294.177C2394.58 293.689 2394.51 293.109 2394.65 292.566L2375.33 287.389ZM2377.54 304.173L2435.8 405.067L2453.12 395.067L2394.86 294.173L2377.54 304.173ZM2439.68 391.282C2336.72 447.28 2266.33 551.522 2256.03 674.554L2275.97 676.221C2285.69 559.964 2352.13 461.665 2449.24 408.852L2439.68 391.282ZM2266 685.387H2966V665.387H2266V685.387ZM2975.97 674.553C2965.66 551.524 2895.27 447.281 2792.32 391.28L2782.76 408.849C2879.86 461.665 2946.3 559.967 2956.03 676.222L2975.97 674.553Z" fill="white" fill-opacity="0.5" mask="url(#path-31-inside-1)"/>
<circle cx="2459" cy="2250" r="295" stroke="white" stroke-opacity="0.5" stroke-width="10"/>
<circle cx="2459" cy="2250" r="225.769" stroke="white" stroke-opacity="0.5" stroke-width="10"/>
<circle cx="2459" cy="2250" r="156.538" stroke="white" stroke-opacity="0.5" stroke-width="10"/>
<circle cx="2456.69" cy="2247.69" r="98.8462" stroke="white" stroke-opacity="0.5" stroke-width="10"/>
<path d="M1471 1014.25V1091H1448V912H1552.5V934H1471V992.75H1544.5V1014.25H1471ZM1597.62 912V1091H1574.62V912H1597.62ZM1733.14 1091H1711.14V1074H1710.14C1706.64 1080 1701.22 1085 1693.89 1089C1686.72 1093 1679.22 1095 1671.39 1095C1656.39 1095 1644.81 1090.75 1636.64 1082.25C1628.64 1073.58 1624.64 1061.33 1624.64 1045.5V968.5H1647.64V1044C1648.14 1064 1658.22 1074 1677.89 1074C1687.06 1074 1694.72 1070.33 1700.89 1063C1707.06 1055.5 1710.14 1046.58 1710.14 1036.25V968.5H1733.14V1091ZM1809.64 1093C1799.64 1093 1791.31 1089.92 1784.64 1083.75C1778.14 1077.58 1774.81 1069 1774.64 1058V989.5H1753.14V968.5H1774.64V931H1797.64V968.5H1827.64V989.5H1797.64V1050.5C1797.64 1058.67 1799.22 1064.25 1802.39 1067.25C1805.56 1070.08 1809.14 1071.5 1813.14 1071.5C1814.97 1071.5 1816.72 1071.33 1818.39 1071C1820.22 1070.5 1821.89 1069.92 1823.39 1069.25L1830.64 1089.75C1824.64 1091.92 1817.64 1093 1809.64 1093ZM1895.52 1093C1885.52 1093 1877.18 1089.92 1870.52 1083.75C1864.02 1077.58 1860.68 1069 1860.52 1058V989.5H1839.02V968.5H1860.52V931H1883.52V968.5H1913.52V989.5H1883.52V1050.5C1883.52 1058.67 1885.1 1064.25 1888.27 1067.25C1891.43 1070.08 1895.02 1071.5 1899.02 1071.5C1900.85 1071.5 1902.6 1071.33 1904.27 1071C1906.1 1070.5 1907.77 1069.92 1909.27 1069.25L1916.52 1089.75C1910.52 1091.92 1903.52 1093 1895.52 1093ZM1989.15 1095C1971.15 1095 1956.31 1088.83 1944.65 1076.5C1932.98 1064.17 1927.15 1048.58 1927.15 1029.75C1927.15 1011.08 1932.81 995.583 1944.15 983.25C1955.48 970.75 1969.98 964.5 1987.65 964.5C2005.81 964.5 2020.23 970.417 2030.9 982.25C2041.73 993.917 2047.15 1010.33 2047.15 1031.5L2046.9 1034H1950.65C1950.98 1046 1954.98 1055.67 1962.65 1063C1970.31 1070.33 1979.48 1074 1990.15 1074C2004.81 1074 2016.31 1066.67 2024.65 1052L2045.15 1062C2039.65 1072.33 2031.98 1080.42 2022.15 1086.25C2012.48 1092.08 2001.48 1095 1989.15 1095ZM1952.4 1015H2022.65C2021.98 1006.5 2018.48 999.5 2012.15 994C2005.98 988.333 1997.65 985.5 1987.15 985.5C1978.48 985.5 1970.98 988.167 1964.65 993.5C1958.48 998.833 1954.4 1006 1952.4 1015ZM2091.18 1091H2068.18V968.5H2090.18V988.5H2091.18C2093.51 982 2098.26 976.5 2105.43 972C2112.76 967.333 2119.93 965 2126.93 965C2133.6 965 2139.26 966 2143.93 968L2136.93 990.25C2134.1 989.083 2129.6 988.5 2123.43 988.5C2114.76 988.5 2107.18 992 2100.68 999C2094.35 1006 2091.18 1014.17 2091.18 1023.5V1091ZM2217.93 1091V912H2272.68C2300.01 912 2321.93 920.25 2338.43 936.75C2355.1 953.25 2363.43 974.833 2363.43 1001.5C2363.43 1028.33 2355.1 1050 2338.43 1066.5C2321.93 1082.83 2300.01 1091 2272.68 1091H2217.93ZM2240.93 934V1069H2272.68C2293.51 1069 2309.93 1063.08 2321.93 1051.25C2333.93 1039.25 2339.93 1022.67 2339.93 1001.5C2339.93 980.5 2333.93 964 2321.93 952C2309.93 940 2293.51 934 2272.68 934H2240.93ZM2403.53 1053.5C2403.53 1059.5 2406.03 1064.5 2411.03 1068.5C2416.2 1072.5 2422.2 1074.5 2429.03 1074.5C2438.7 1074.5 2447.28 1070.92 2454.78 1063.75C2462.45 1056.58 2466.28 1048.17 2466.28 1038.5C2459.12 1032.83 2449.12 1030 2436.28 1030C2426.95 1030 2419.12 1032.25 2412.78 1036.75C2406.62 1041.25 2403.53 1046.83 2403.53 1053.5ZM2433.28 964.5C2450.28 964.5 2463.7 969.083 2473.53 978.25C2483.37 987.25 2488.28 999.667 2488.28 1015.5V1091H2466.28V1074H2465.28C2455.78 1088 2443.12 1095 2427.28 1095C2413.78 1095 2402.45 1091 2393.28 1083C2384.28 1075 2379.78 1065 2379.78 1053C2379.78 1040.33 2384.53 1030.25 2394.03 1022.75C2403.7 1015.25 2416.53 1011.5 2432.53 1011.5C2446.2 1011.5 2457.45 1014 2466.28 1019V1013.75C2466.28 1005.75 2463.12 999 2456.78 993.5C2450.45 987.833 2443.03 985 2434.53 985C2421.7 985 2411.53 990.417 2404.03 1001.25L2383.78 988.5C2394.95 972.5 2411.45 964.5 2433.28 964.5ZM2621.28 968.5L2544.53 1145H2520.78L2549.28 1083.25L2498.78 968.5H2523.78L2560.28 1056.5H2560.78L2596.28 968.5H2621.28ZM2718.23 1091H2695.23V912H2718.23V1091ZM2750.31 968.5H2772.31V985.5H2773.31C2776.81 979.5 2782.14 974.5 2789.31 970.5C2796.64 966.5 2804.23 964.5 2812.06 964.5C2827.06 964.5 2838.56 968.833 2846.56 977.5C2854.73 986 2858.81 998.167 2858.81 1014V1091H2835.81V1015.5C2835.31 995.5 2825.23 985.5 2805.56 985.5C2796.39 985.5 2788.73 989.25 2782.56 996.75C2776.39 1004.08 2773.31 1012.92 2773.31 1023.25V1091H2750.31V968.5ZM2940.81 1074C2952.14 1074 2961.39 1069.92 2968.56 1061.75C2976.06 1053.58 2979.81 1042.92 2979.81 1029.75C2979.81 1016.92 2976.06 1006.33 2968.56 998C2961.22 989.667 2951.97 985.5 2940.81 985.5C2929.81 985.5 2920.56 989.667 2913.06 998C2905.56 1006.33 2901.81 1016.92 2901.81 1029.75C2901.81 1042.75 2905.56 1053.33 2913.06 1061.5C2920.56 1069.83 2929.81 1074 2940.81 1074ZM2937.06 1095C2921.06 1095 2907.31 1088.67 2895.81 1076C2884.47 1063.17 2878.81 1047.75 2878.81 1029.75C2878.81 1011.75 2884.47 996.333 2895.81 983.5C2907.31 970.833 2921.06 964.5 2937.06 964.5C2946.06 964.5 2954.22 966.417 2961.56 970.25C2969.06 974.083 2974.81 979.167 2978.81 985.5H2979.81L2978.81 968.5V912H3001.81V1091H2979.81V1074H2978.81C2974.81 1080.33 2969.06 1085.42 2961.56 1089.25C2954.22 1093.08 2946.06 1095 2937.06 1095ZM3059.6 926.25C3059.6 930.75 3058.02 934.583 3054.85 937.75C3051.68 940.917 3047.85 942.5 3043.35 942.5C3038.85 942.5 3035.02 940.917 3031.85 937.75C3028.68 934.583 3027.1 930.75 3027.1 926.25C3027.1 921.75 3028.68 917.917 3031.85 914.75C3035.02 911.583 3038.85 910 3043.35 910C3047.85 910 3051.68 911.583 3054.85 914.75C3058.02 917.917 3059.6 921.75 3059.6 926.25ZM3054.85 968.5V1091H3031.85V968.5H3054.85ZM3100.31 1053.5C3100.31 1059.5 3102.81 1064.5 3107.81 1068.5C3112.98 1072.5 3118.98 1074.5 3125.81 1074.5C3135.48 1074.5 3144.06 1070.92 3151.56 1063.75C3159.23 1056.58 3163.06 1048.17 3163.06 1038.5C3155.89 1032.83 3145.89 1030 3133.06 1030C3123.73 1030 3115.89 1032.25 3109.56 1036.75C3103.39 1041.25 3100.31 1046.83 3100.31 1053.5ZM3130.06 964.5C3147.06 964.5 3160.48 969.083 3170.31 978.25C3180.14 987.25 3185.06 999.667 3185.06 1015.5V1091H3163.06V1074H3162.06C3152.56 1088 3139.89 1095 3124.06 1095C3110.56 1095 3099.23 1091 3090.06 1083C3081.06 1075 3076.56 1065 3076.56 1053C3076.56 1040.33 3081.31 1030.25 3090.81 1022.75C3100.48 1015.25 3113.31 1011.5 3129.31 1011.5C3142.98 1011.5 3154.23 1014 3163.06 1019V1013.75C3163.06 1005.75 3159.89 999 3153.56 993.5C3147.23 987.833 3139.81 985 3131.31 985C3118.48 985 3108.31 990.417 3100.81 1001.25L3080.56 988.5C3091.73 972.5 3108.23 964.5 3130.06 964.5Z" fill="white"/>
<path d="M1474.46 1312.88C1464.74 1312.88 1456.34 1310.24 1449.26 1304.96C1442.18 1299.68 1437.2 1292.36 1434.32 1283L1449.98 1276.52C1454.06 1290.2 1462.22 1297.04 1474.46 1297.04C1481.18 1297.04 1486.58 1294.7 1490.66 1290.02C1494.86 1285.22 1496.96 1279.04 1496.96 1271.48V1181.12H1513.52V1270.04C1513.52 1283.36 1509.98 1293.86 1502.9 1301.54C1495.94 1309.1 1486.46 1312.88 1474.46 1312.88ZM1610.12 1310H1594.28V1297.76H1593.56C1591.04 1302.08 1587.14 1305.68 1581.86 1308.56C1576.7 1311.44 1571.3 1312.88 1565.66 1312.88C1554.86 1312.88 1546.52 1309.82 1540.64 1303.7C1534.88 1297.46 1532 1288.64 1532 1277.24V1221.8H1548.56V1276.16C1548.92 1290.56 1556.18 1297.76 1570.34 1297.76C1576.94 1297.76 1582.46 1295.12 1586.9 1289.84C1591.34 1284.44 1593.56 1278.02 1593.56 1270.58V1221.8H1610.12V1310ZM1630.28 1221.8H1646.12V1234.04H1646.84C1649.36 1229.72 1653.2 1226.12 1658.36 1223.24C1663.64 1220.36 1669.1 1218.92 1674.74 1218.92C1685.54 1218.92 1693.82 1222.04 1699.58 1228.28C1705.46 1234.4 1708.4 1243.16 1708.4 1254.56V1310H1691.84V1255.64C1691.48 1241.24 1684.22 1234.04 1670.06 1234.04C1663.46 1234.04 1657.94 1236.74 1653.5 1242.14C1649.06 1247.42 1646.84 1253.78 1646.84 1261.22V1310H1630.28V1221.8ZM1767.43 1312.88C1754.47 1312.88 1743.79 1308.44 1735.39 1299.56C1726.99 1290.68 1722.79 1279.46 1722.79 1265.9C1722.79 1252.46 1726.87 1241.3 1735.03 1232.42C1743.19 1223.42 1753.63 1218.92 1766.35 1218.92C1779.43 1218.92 1789.81 1223.18 1797.49 1231.7C1805.29 1240.1 1809.19 1251.92 1809.19 1267.16L1809.01 1268.96H1739.71C1739.95 1277.6 1742.83 1284.56 1748.35 1289.84C1753.87 1295.12 1760.47 1297.76 1768.15 1297.76C1778.71 1297.76 1786.99 1292.48 1792.99 1281.92L1807.75 1289.12C1803.79 1296.56 1798.27 1302.38 1791.19 1306.58C1784.23 1310.78 1776.31 1312.88 1767.43 1312.88ZM1740.97 1255.28H1791.55C1791.07 1249.16 1788.55 1244.12 1783.99 1240.16C1779.55 1236.08 1773.55 1234.04 1765.99 1234.04C1759.75 1234.04 1754.35 1235.96 1749.79 1239.8C1745.35 1243.64 1742.41 1248.8 1740.97 1255.28ZM1939.49 1294.16V1310H1861.01V1293.44L1892.87 1261.22C1903.55 1250.3 1910.93 1242.14 1915.01 1236.74C1919.09 1231.22 1921.13 1225.46 1921.13 1219.46C1921.13 1214.06 1919.03 1209.44 1914.83 1205.6C1910.63 1201.76 1905.23 1199.84 1898.63 1199.84C1892.99 1199.84 1888.13 1201.52 1884.05 1204.88C1879.97 1208.24 1877.33 1212.32 1876.13 1217.12L1861.01 1211C1863.41 1203.44 1868.03 1197.08 1874.87 1191.92C1881.71 1186.64 1889.75 1184 1898.99 1184C1910.15 1184 1919.45 1187.42 1926.89 1194.26C1934.33 1201.1 1938.05 1209.5 1938.05 1219.46C1938.05 1231.34 1931.51 1244.18 1918.43 1257.98L1882.43 1294.16H1939.49ZM2034.26 1203.8L1974.5 1312.88L1959.74 1305.32L2016.8 1202.72H1954.52L1954.88 1186.88H2034.26V1203.8ZM2037.34 1330.16L2029.6 1325.12L2039.32 1310C2036.8 1309.52 2034.64 1308.26 2032.84 1306.22C2031.16 1304.18 2030.32 1301.72 2030.32 1298.84C2030.32 1295.36 2031.52 1292.48 2033.92 1290.2C2036.32 1287.8 2039.2 1286.6 2042.56 1286.6C2046.04 1286.6 2048.92 1287.8 2051.2 1290.2C2053.6 1292.48 2054.8 1295.36 2054.8 1298.84C2054.8 1302.08 2053.6 1305.62 2051.2 1309.46L2037.34 1330.16ZM2188.75 1294.16V1310H2110.27V1293.44L2142.13 1261.22C2152.81 1250.3 2160.19 1242.14 2164.27 1236.74C2168.35 1231.22 2170.39 1225.46 2170.39 1219.46C2170.39 1214.06 2168.29 1209.44 2164.09 1205.6C2159.89 1201.76 2154.49 1199.84 2147.89 1199.84C2142.25 1199.84 2137.39 1201.52 2133.31 1204.88C2129.23 1208.24 2126.59 1212.32 2125.39 1217.12L2110.27 1211C2112.67 1203.44 2117.29 1197.08 2124.13 1191.92C2130.97 1186.64 2139.01 1184 2148.25 1184C2159.41 1184 2168.71 1187.42 2176.15 1194.26C2183.59 1201.1 2187.31 1209.5 2187.31 1219.46C2187.31 1231.34 2180.77 1244.18 2167.69 1257.98L2131.69 1294.16H2188.75ZM2204.5 1248.44C2204.5 1229.72 2209.12 1214.3 2218.36 1202.18C2227.6 1190.06 2239.48 1184 2254 1184C2268.52 1184 2280.4 1190.12 2289.64 1202.36C2298.88 1214.48 2303.5 1229.84 2303.5 1248.44C2303.5 1266.92 2298.88 1282.34 2289.64 1294.7C2280.4 1306.82 2268.52 1312.88 2254 1312.88C2239.48 1312.88 2227.6 1306.82 2218.36 1294.7C2209.12 1282.34 2204.5 1266.92 2204.5 1248.44ZM2286.58 1248.44C2286.58 1234.28 2283.58 1222.64 2277.58 1213.52C2271.7 1204.4 2263.84 1199.84 2254 1199.84C2244.16 1199.84 2236.3 1204.4 2230.42 1213.52C2224.42 1222.64 2221.42 1234.28 2221.42 1248.44C2221.42 1262.6 2224.42 1274.3 2230.42 1283.54C2236.3 1292.54 2244.16 1297.04 2254 1297.04C2263.84 1297.04 2271.7 1292.48 2277.58 1283.36C2283.58 1274.12 2286.58 1262.48 2286.58 1248.44ZM2395.29 1294.16V1310H2316.81V1293.44L2348.67 1261.22C2359.35 1250.3 2366.73 1242.14 2370.81 1236.74C2374.89 1231.22 2376.93 1225.46 2376.93 1219.46C2376.93 1214.06 2374.83 1209.44 2370.63 1205.6C2366.43 1201.76 2361.03 1199.84 2354.43 1199.84C2348.79 1199.84 2343.93 1201.52 2339.85 1204.88C2335.77 1208.24 2333.13 1212.32 2331.93 1217.12L2316.81 1211C2319.21 1203.44 2323.83 1197.08 2330.67 1191.92C2337.51 1186.64 2345.55 1184 2354.79 1184C2365.95 1184 2375.25 1187.42 2382.69 1194.26C2390.13 1201.1 2393.85 1209.5 2393.85 1219.46C2393.85 1231.34 2387.31 1244.18 2374.23 1257.98L2338.23 1294.16H2395.29ZM2411.05 1248.44C2411.05 1229.72 2415.67 1214.3 2424.91 1202.18C2434.15 1190.06 2446.03 1184 2460.55 1184C2475.07 1184 2486.95 1190.12 2496.19 1202.36C2505.43 1214.48 2510.05 1229.84 2510.05 1248.44C2510.05 1266.92 2505.43 1282.34 2496.19 1294.7C2486.95 1306.82 2475.07 1312.88 2460.55 1312.88C2446.03 1312.88 2434.15 1306.82 2424.91 1294.7C2415.67 1282.34 2411.05 1266.92 2411.05 1248.44ZM2493.12 1248.44C2493.12 1234.28 2490.13 1222.64 2484.13 1213.52C2478.25 1204.4 2470.39 1199.84 2460.55 1199.84C2450.71 1199.84 2442.85 1204.4 2436.97 1213.52C2430.97 1222.64 2427.97 1234.28 2427.97 1248.44C2427.97 1262.6 2430.97 1274.3 2436.97 1283.54C2442.85 1292.54 2450.71 1297.04 2460.55 1297.04C2470.39 1297.04 2478.25 1292.48 2484.13 1283.36C2490.13 1274.12 2493.12 1262.48 2493.12 1248.44Z" fill="white"/>
<path d="M902.298 1219.7L807 1124.4L1116.43 815H1307L902.298 1219.7ZM1307 1100.52H1116.43L1045.04 1171.9L1140.34 1267.2" fill="#42A5F5" fill-opacity="0.8"/>
<path d="M1045.04 1362.47L1116.43 1433.86H1307L1140.34 1267.2" fill="#0D47A1"/>
<path d="M949.971 1267.25L1045.12 1172.08L1140.27 1267.23L1045.12 1362.4L949.971 1267.25Z" fill="#42A5F5"/>
<path d="M1045.12 1362.4L1140.27 1267.25L1153.55 1280.53L1058.4 1375.68L1045.12 1362.4Z" fill="url(#paint0_linear)"/>
<path d="M1045.04 1362.47L1186.44 1313.62L1140.34 1267.18" fill="url(#paint1_linear)"/>
<g opacity="0.4">
<rect x="2839" y="1373" width="1290" height="918.571" rx="15" stroke="white" stroke-width="10"/>
<path d="M2834 1388C2834 1376.95 2842.95 1368 2854 1368H4114C4125.05 1368 4134 1376.95 4134 1388V1514.71H2834V1388Z" fill="white"/>
<circle cx="2893.43" cy="1440.43" r="18.5714" fill="#F10909"/>
<circle cx="2960.29" cy="1440.43" r="18.5714" fill="#C4C4C4"/>
<circle cx="3027.14" cy="1440.43" r="18.5714" fill="#56C400"/>
</g>
</g>
<defs>
<linearGradient id="paint0_linear" x1="1092.71" y1="1314.81" x2="1105.99" y2="1328.09" gradientUnits="userSpaceOnUse">
<stop offset="0.2" stop-opacity="0.15"/>
<stop offset="0.85" stop-color="#616161" stop-opacity="0.01"/>
</linearGradient>
<linearGradient id="paint1_linear" x1="1045.08" y1="1314.83" x2="1186.47" y2="1314.83" gradientUnits="userSpaceOnUse">
<stop offset="0.2" stop-opacity="0.55"/>
<stop offset="0.85" stop-color="#616161" stop-opacity="0.01"/>
</linearGradient>
<clipPath id="clip0">
<rect width="4000" height="2250" fill="white"/>
</clipPath>
</defs>
</svg>
