<svg width="875" height="95" viewBox="0 0 875 95" fill="none" xmlns="http://www.w3.org/2000/svg">
<rect x="14.4043" y="67.5761" width="27.458" height="81.8382" rx="13.729" transform="rotate(-121.64 14.4043 67.5761)" fill="#DB4437"/>
<rect y="53.8485" width="27.458" height="81.8382" rx="13.729" transform="rotate(-60.2898 0 53.8485)" fill="#4285F4"/>
<rect x="108.862" y="93.8761" width="27.458" height="81.8382" rx="13.729" transform="rotate(-119.347 108.862 93.8761)" fill="#F4B400"/>
<rect x="95.3213" y="24.8108" width="28.9263" height="83.7185" rx="14.4632" transform="rotate(-59.0622 95.3213 24.8108)" fill="#0F9D58"/>
<path d="M254.88 49.68C254.88 57.68 252.507 64.0533 247.76 68.8C242.427 74.4533 235.413 77.28 226.72 77.28C218.4 77.28 211.36 74.4 205.6 68.64C199.84 62.88 196.96 55.7867 196.96 47.36C196.96 38.9333 199.84 31.84 205.6 26.08C211.36 20.32 218.4 17.44 226.72 17.44C230.933 17.44 234.907 18.1867 238.64 19.68C242.373 21.1733 245.44 23.28 247.84 26L242.56 31.28C240.8 29.1467 238.507 27.4933 235.68 26.32C232.907 25.0933 229.92 24.48 226.72 24.48C220.48 24.48 215.2 26.64 210.88 30.96C206.613 35.3333 204.48 40.8 204.48 47.36C204.48 53.92 206.613 59.3867 210.88 63.76C215.2 68.08 220.48 70.24 226.72 70.24C232.427 70.24 237.173 68.64 240.96 65.44C244.747 62.24 246.933 57.84 247.52 52.24H226.72V45.36H254.48C254.747 46.8533 254.88 48.2933 254.88 49.68ZM259.912 56.4C259.912 50.3733 261.805 45.3867 265.592 41.44C269.432 37.4933 274.259 35.52 280.072 35.52C285.885 35.52 290.685 37.4933 294.472 41.44C298.312 45.3867 300.232 50.3733 300.232 56.4C300.232 62.48 298.312 67.4667 294.472 71.36C290.685 75.3067 285.885 77.28 280.072 77.28C274.259 77.28 269.432 75.3067 265.592 71.36C261.805 67.4133 259.912 62.4267 259.912 56.4ZM267.272 56.4C267.272 60.6133 268.499 64.0267 270.952 66.64C273.405 69.2533 276.445 70.56 280.072 70.56C283.699 70.56 286.739 69.2533 289.192 66.64C291.645 64.0267 292.872 60.6133 292.872 56.4C292.872 52.24 291.645 48.8533 289.192 46.24C286.685 43.5733 283.645 42.24 280.072 42.24C276.499 42.24 273.459 43.5733 270.952 46.24C268.499 48.8533 267.272 52.24 267.272 56.4ZM304.678 56.4C304.678 50.3733 306.571 45.3867 310.358 41.44C314.198 37.4933 319.024 35.52 324.838 35.52C330.651 35.52 335.451 37.4933 339.238 41.44C343.078 45.3867 344.998 50.3733 344.998 56.4C344.998 62.48 343.078 67.4667 339.238 71.36C335.451 75.3067 330.651 77.28 324.838 77.28C319.024 77.28 314.198 75.3067 310.358 71.36C306.571 67.4133 304.678 62.4267 304.678 56.4ZM312.038 56.4C312.038 60.6133 313.264 64.0267 315.718 66.64C318.171 69.2533 321.211 70.56 324.838 70.56C328.464 70.56 331.504 69.2533 333.958 66.64C336.411 64.0267 337.638 60.6133 337.638 56.4C337.638 52.24 336.411 48.8533 333.958 46.24C331.451 43.5733 328.411 42.24 324.838 42.24C321.264 42.24 318.224 43.5733 315.718 46.24C313.264 48.8533 312.038 52.24 312.038 56.4ZM369.283 70.56C372.91 70.56 375.87 69.2533 378.163 66.64C380.563 64.0267 381.763 60.6133 381.763 56.4C381.763 52.2933 380.563 48.9067 378.163 46.24C375.816 43.5733 372.856 42.24 369.283 42.24C365.763 42.24 362.803 43.5733 360.403 46.24C358.003 48.9067 356.803 52.2933 356.803 56.4C356.803 60.56 358.003 63.9467 360.403 66.56C362.803 69.2267 365.763 70.56 369.283 70.56ZM369.043 94.56C366.856 94.56 364.803 94.2667 362.883 93.68C360.963 93.1467 359.203 92.3733 357.603 91.36C356.056 90.3467 354.723 89.1467 353.603 87.76C352.483 86.3733 351.63 84.8267 351.043 83.12L358.003 80.24C358.803 82.5333 360.19 84.3733 362.163 85.76C364.136 87.1467 366.43 87.84 369.043 87.84C373.043 87.84 376.163 86.64 378.403 84.24C380.643 81.84 381.763 78.5333 381.763 74.32V70.56H381.443C380.056 72.64 378.163 74.2933 375.763 75.52C373.416 76.6933 370.856 77.28 368.083 77.28C362.963 77.28 358.563 75.28 354.883 71.28C351.256 67.1733 349.443 62.2133 349.443 56.4C349.443 50.5867 351.256 45.6533 354.883 41.6C358.563 37.5467 362.963 35.52 368.083 35.52C370.856 35.52 373.416 36.1333 375.763 37.36C378.163 38.5333 380.056 40.16 381.443 42.24H381.763V36.8H388.803V74.32C388.803 80.6133 387.016 85.5467 383.443 89.12C379.816 92.7467 375.016 94.56 369.043 94.56ZM405.137 18.72V76H397.777V18.72H405.137ZM431.314 77.28C425.554 77.28 420.808 75.3067 417.074 71.36C413.341 67.4133 411.474 62.4267 411.474 56.4C411.474 50.4267 413.288 45.4667 416.914 41.52C420.541 37.52 425.181 35.52 430.834 35.52C436.648 35.52 441.261 37.4133 444.674 41.2C448.141 44.9333 449.874 50.1867 449.874 56.96L449.794 57.76H418.994C419.101 61.6 420.381 64.6933 422.834 67.04C425.288 69.3867 428.221 70.56 431.634 70.56C436.328 70.56 440.008 68.2133 442.674 63.52L449.234 66.72C447.474 70.0267 445.021 72.6133 441.874 74.48C438.781 76.3467 435.261 77.28 431.314 77.28ZM419.554 51.68H442.034C441.821 48.96 440.701 46.72 438.674 44.96C436.701 43.1467 434.034 42.24 430.674 42.24C427.901 42.24 425.501 43.0933 423.474 44.8C421.501 46.5067 420.194 48.8 419.554 51.68ZM475.463 76V18.72H492.983C501.73 18.72 508.743 21.36 514.023 26.64C519.356 31.92 522.023 38.8267 522.023 47.36C522.023 55.9467 519.356 62.88 514.023 68.16C508.743 73.3867 501.73 76 492.983 76H475.463ZM482.823 25.76V68.96H492.983C499.65 68.96 504.903 67.0667 508.743 63.28C512.583 59.44 514.503 54.1333 514.503 47.36C514.503 40.64 512.583 35.36 508.743 31.52C504.903 27.68 499.65 25.76 492.983 25.76H482.823ZM545.924 77.28C540.164 77.28 535.417 75.3067 531.684 71.36C527.95 67.4133 526.084 62.4267 526.084 56.4C526.084 50.4267 527.897 45.4667 531.524 41.52C535.15 37.52 539.79 35.52 545.444 35.52C551.257 35.52 555.87 37.4133 559.284 41.2C562.75 44.9333 564.484 50.1867 564.484 56.96L564.404 57.76H533.604C533.71 61.6 534.99 64.6933 537.444 67.04C539.897 69.3867 542.83 70.56 546.244 70.56C550.937 70.56 554.617 68.2133 557.284 63.52L563.844 66.72C562.084 70.0267 559.63 72.6133 556.484 74.48C553.39 76.3467 549.87 77.28 545.924 77.28ZM534.164 51.68H556.644C556.43 48.96 555.31 46.72 553.284 44.96C551.31 43.1467 548.644 42.24 545.284 42.24C542.51 42.24 540.11 43.0933 538.084 44.8C536.11 46.5067 534.804 48.8 534.164 51.68ZM589.473 76H582.113L566.273 36.8H574.273L585.793 67.2H585.953L597.633 36.8H605.473L589.473 76ZM626.705 77.28C620.945 77.28 616.198 75.3067 612.465 71.36C608.732 67.4133 606.865 62.4267 606.865 56.4C606.865 50.4267 608.678 45.4667 612.305 41.52C615.932 37.52 620.572 35.52 626.225 35.52C632.038 35.52 636.652 37.4133 640.065 41.2C643.532 44.9333 645.265 50.1867 645.265 56.96L645.185 57.76H614.385C614.492 61.6 615.772 64.6933 618.225 67.04C620.678 69.3867 623.612 70.56 627.025 70.56C631.718 70.56 635.398 68.2133 638.065 63.52L644.625 66.72C642.865 70.0267 640.412 72.6133 637.265 74.48C634.172 76.3467 630.652 77.28 626.705 77.28ZM614.945 51.68H637.425C637.212 48.96 636.092 46.72 634.065 44.96C632.092 43.1467 629.425 42.24 626.065 42.24C623.292 42.24 620.892 43.0933 618.865 44.8C616.892 46.5067 615.585 48.8 614.945 51.68ZM659.356 18.72V76H651.996V18.72H659.356ZM665.693 56.4C665.693 50.3733 667.586 45.3867 671.373 41.44C675.213 37.4933 680.04 35.52 685.853 35.52C691.666 35.52 696.466 37.4933 700.253 41.44C704.093 45.3867 706.013 50.3733 706.013 56.4C706.013 62.48 704.093 67.4667 700.253 71.36C696.466 75.3067 691.666 77.28 685.853 77.28C680.04 77.28 675.213 75.3067 671.373 71.36C667.586 67.4133 665.693 62.4267 665.693 56.4ZM673.053 56.4C673.053 60.6133 674.28 64.0267 676.733 66.64C679.186 69.2533 682.226 70.56 685.853 70.56C689.48 70.56 692.52 69.2533 694.973 66.64C697.426 64.0267 698.653 60.6133 698.653 56.4C698.653 52.24 697.426 48.8533 694.973 46.24C692.466 43.5733 689.426 42.24 685.853 42.24C682.28 42.24 679.24 43.5733 676.733 46.24C674.28 48.8533 673.053 52.24 673.053 56.4ZM731.508 70.56C735.028 70.56 737.988 69.2267 740.388 66.56C742.788 63.9467 743.988 60.56 743.988 56.4C743.988 52.2933 742.788 48.9067 740.388 46.24C737.988 43.5733 735.028 42.24 731.508 42.24C727.935 42.24 724.948 43.5733 722.548 46.24C720.201 48.9067 719.028 52.2933 719.028 56.4C719.028 60.56 720.201 63.9733 722.548 66.64C724.948 69.2533 727.935 70.56 731.508 70.56ZM732.708 77.28C729.828 77.28 727.188 76.6667 724.788 75.44C722.441 74.2133 720.628 72.5867 719.348 70.56H719.028L719.348 76V93.28H711.988V36.8H719.028V42.24H719.348C720.628 40.2133 722.441 38.5867 724.788 37.36C727.188 36.1333 729.828 35.52 732.708 35.52C737.881 35.52 742.255 37.5467 745.828 41.6C749.508 45.7067 751.348 50.64 751.348 56.4C751.348 62.2133 749.508 67.1467 745.828 71.2C742.255 75.2533 737.881 77.28 732.708 77.28ZM775.689 77.28C769.929 77.28 765.183 75.3067 761.449 71.36C757.716 67.4133 755.849 62.4267 755.849 56.4C755.849 50.4267 757.663 45.4667 761.289 41.52C764.916 37.52 769.556 35.52 775.209 35.52C781.023 35.52 785.636 37.4133 789.049 41.2C792.516 44.9333 794.249 50.1867 794.249 56.96L794.169 57.76H763.369C763.476 61.6 764.756 64.6933 767.209 67.04C769.663 69.3867 772.596 70.56 776.009 70.56C780.703 70.56 784.383 68.2133 787.049 63.52L793.609 66.72C791.849 70.0267 789.396 72.6133 786.249 74.48C783.156 76.3467 779.636 77.28 775.689 77.28ZM763.929 51.68H786.409C786.196 48.96 785.076 46.72 783.049 44.96C781.076 43.1467 778.409 42.24 775.049 42.24C772.276 42.24 769.876 43.0933 767.849 44.8C765.876 46.5067 764.569 48.8 763.929 51.68ZM808.34 76H800.98V36.8H808.02V43.2H808.34C809.087 41.12 810.607 39.36 812.9 37.92C815.247 36.4267 817.54 35.68 819.78 35.68C821.913 35.68 823.727 36 825.22 36.64L822.98 43.76C822.073 43.3867 820.633 43.2 818.66 43.2C815.887 43.2 813.46 44.32 811.38 46.56C809.353 48.8 808.34 51.4133 808.34 54.4V76ZM858.48 65.12C858.48 68.5333 856.987 71.4133 854 73.76C851.013 76.1067 847.253 77.28 842.72 77.28C838.773 77.28 835.307 76.2667 832.32 74.24C829.333 72.16 827.2 69.44 825.92 66.08L832.48 63.28C833.44 65.6267 834.827 67.4667 836.64 68.8C838.507 70.08 840.533 70.72 842.72 70.72C845.067 70.72 847.013 70.2133 848.56 69.2C850.16 68.1867 850.96 66.9867 850.96 65.6C850.96 63.0933 849.04 61.2533 845.2 60.08L838.48 58.4C830.853 56.48 827.04 52.8 827.04 47.36C827.04 43.7867 828.48 40.9333 831.36 38.8C834.293 36.6133 838.027 35.52 842.56 35.52C846.027 35.52 849.147 36.3467 851.92 38C854.747 39.6533 856.72 41.8667 857.84 44.64L851.28 47.36C850.533 45.7067 849.307 44.4267 847.6 43.52C845.947 42.56 844.08 42.08 842 42.08C840.08 42.08 838.347 42.56 836.8 43.52C835.307 44.48 834.56 45.6533 834.56 47.04C834.56 49.28 836.667 50.88 840.88 51.84L846.8 53.36C854.587 55.28 858.48 59.2 858.48 65.12Z" fill="white"/>
</svg>
