<svg width="2500" height="2500" viewBox="0 0 2500 2500" fill="none" xmlns="http://www.w3.org/2000/svg">
<g clip-path="url(#clip0)">
<circle cx="1250" cy="1250" r="1250" fill="white"/>
<path d="M1250 0.00268555C559.638 0.00268555 0 559.642 0 1250C0 1940.36 559.638 2500 1250 2500C1940.36 2500 2500 1940.36 2500 1250C2499.99 559.642 1940.35 0.00268555 1250 0.00268555ZM916.496 1854.32H642.046V967.65H916.496V1854.32ZM777.963 851.534C688.331 851.534 615.668 778.279 615.668 687.928C615.668 597.568 688.341 524.317 777.963 524.317C867.585 524.317 940.248 597.568 940.248 687.928C940.253 778.284 867.59 851.534 777.963 851.534ZM1945 1854.32H1671.88V1388.89C1671.88 1261.24 1623.39 1189.98 1522.45 1189.98C1412.59 1189.98 1355.2 1264.2 1355.2 1388.89V1854.32H1091.97V967.65H1355.2V1087.07C1355.2 1087.07 1434.38 940.604 1622.39 940.604C1810.41 940.604 1945 1055.4 1945 1292.89L1945 1854.32Z" fill="url(#paint0_linear)"/>
</g>
<defs>
<linearGradient id="paint0_linear" x1="366.115" y1="366.119" x2="2133.88" y2="2133.88" gradientUnits="userSpaceOnUse">
<stop stop-color="#2489BE"/>
<stop offset="1" stop-color="#0575B3"/>
</linearGradient>
<clipPath id="clip0">
<rect width="2500" height="2500" fill="white"/>
</clipPath>
</defs>
</svg>
