<svg width="1922" height="424" viewBox="0 0 1922 424" fill="none" xmlns="http://www.w3.org/2000/svg">
<g clip-path="url(#clip0)">
<path d="M319.9 423.3L194.2 421C153.5 420.2 112.7 421.8 72.7997 413.5C12.0997 401.1 7.79973 340.3 3.29973 289.3C-2.90027 217.6 -0.500267 144.6 11.1997 73.5C17.7997 33.6 43.7997 9.79999 83.9997 7.19999C219.7 -2.20001 356.3 -1.10001 491.7 3.29999C506 3.69999 520.4 5.89999 534.5 8.39999C604.1 20.6 605.8 89.5 610.3 147.5C614.8 206.1 612.9 265 604.3 323.2C597.4 371.4 584.2 411.8 528.5 415.7C458.7 420.8 390.5 424.9 320.5 423.6C320.5 423.3 320.1 423.3 319.9 423.3ZM246 301.3C298.6 271.1 350.2 241.4 402.5 211.4C349.8 181.2 298.3 151.5 246 121.5V301.3Z" fill="#FF0000"/>
<path d="M1621.8 368.5C1619.4 378.3 1617.3 386 1615.2 394.2H1566V14.7H1623.4V154.7C1626.4 150.9 1627.9 149.3 1629.2 147.6C1639 134.1 1651.7 125.3 1668.1 121.9C1694.2 116.8 1716.5 128.3 1724.4 153.4C1729.5 169 1732.8 185.7 1733.2 202C1734 243.9 1733.4 285.7 1731.9 327.6C1731.3 340.4 1727.4 353.5 1722.5 365.5C1706.4 405.1 1653.8 411.1 1627.7 376.8C1626.1 374.7 1624.6 372.4 1621.8 368.5ZM1624.6 264.1V333.5C1624.6 344.8 1630.6 351.7 1641.9 354.3C1653 356.9 1662 352.6 1666.5 342.3C1668.4 338 1670.3 333.5 1670.4 329C1671.5 286.6 1672.5 244.2 1672.8 201.7C1672.8 193.8 1670.9 185.6 1668.5 177.9C1664 164 1651.6 159.9 1639.4 168C1630.2 174.2 1624.6 183 1624.6 194.7V264.1ZM1468.6 127.3H1528.7V394.4H1481.8C1480.1 384.3 1478.4 373.9 1476.4 361.7C1473.2 366.4 1471.3 369.4 1469.3 372.4C1453.7 394.9 1431.6 402.6 1405.5 398.5C1383.2 394.9 1369.8 377.7 1366.8 349.5C1365.9 341.1 1365.5 332.6 1365.5 324.2C1365.3 261.7 1365.5 199 1365.5 136.5V127.1H1426.3V138C1426.3 198.4 1426.1 258.7 1426.5 319.1C1426.5 327.7 1427.4 336.6 1428.9 345.2C1430.6 354 1437 357.2 1445.6 356.6C1459.5 355.5 1469.1 345.2 1469.1 331.4V139.1C1468.6 135.2 1468.6 131.6 1468.6 127.3ZM1054.8 127.1H1115.2V138.4C1115.2 198.5 1115 258.5 1115.4 318.4C1115.4 327 1116.2 335.9 1118 344.3C1120.3 354.2 1126.1 357.4 1136 356.1C1149.7 354.2 1158 344.7 1158.1 330.8V139.5V127.5H1218.2V394.4H1171.5C1169.8 384.5 1168.1 374.3 1165.9 361.4C1162.9 365.9 1161.2 368.5 1159.5 371.2C1143.9 394.1 1122 402.5 1095.3 398.4C1073.9 395.2 1060.8 379.4 1056.8 353.5C1055.7 345.4 1054.9 337.4 1054.9 329.3C1054.7 264.4 1054.7 199.2 1054.7 134.3L1054.8 127.1ZM1023.8 269.7C1023.6 278.7 1023 287.7 1022.5 296.7C1020.2 323.7 1019.1 362 997.3 381.7C983.4 394.1 965.8 398.6 947.6 399.2C939.5 399.4 931.3 399.4 923.2 398.3C884.9 392.5 867.1 375.6 860.7 333.5C853.4 284.9 852.8 235.5 861.5 186.9C870.5 136.6 901.5 118.8 949.7 122.1C994.7 125.3 1014.8 154.8 1020.1 196.8C1023 220.9 1024.4 245.3 1023.8 269.7ZM962.6 260.5C962.6 243.4 963 226.2 962.4 209.1C962 199.2 960.7 189.2 958.6 179.4C956.2 168.1 949 162.7 940 162.9C931.2 163.1 925 168.5 921.8 179C920.7 182.9 919.5 186.9 919.5 190.8C919.5 217.6 919.3 244.5 919.1 271.3C918.9 296.3 915.7 322.5 923.6 346.4C926 353.7 932.2 357.7 940.3 357.7C948.2 357.7 953.4 353.8 956.3 346.8C958.6 341.4 960.6 335.5 960.6 329.7C961.3 306.7 962.6 283.6 962.6 260.5ZM772.5 210.2C777.8 184.3 782.8 159 788.3 133.6C795.2 101.3 802.9 69 809.7 36.5999C811.4 28.6999 814.6 26.8 822.1 27C838.2 27.6 854.6 27.2 871.8 27.2C866.2 47.8 860.7 67.4 855.3 86.7C838.2 147.3 821.1 208.1 804.2 268.9C802.9 273.6 802.3 278.7 802.3 283.7C802.1 316.9 802.3 350 802.3 383.2V394H743.6C743.4 391 743 388 743 385C743 366.2 741.5 347.3 743.2 328.7C747.5 284 733.3 242.9 721.8 201.3C706.6 146.3 691.2 91.0999 676 36.0999C675.2 33.4999 674.9 30.7 674.1 27.5H734C746.6 88.2 759.3 148.9 772.5 210.2ZM1921 279.9H1819.8C1820.9 300.2 1821.3 319.5 1823.4 338.6C1824.9 351.9 1832.2 357.6 1843.7 357.7C1855.7 357.9 1862.7 351.9 1865.5 338.7C1866.4 334.4 1867 330.1 1867.4 325.7C1867.8 321.8 1868 317.6 1868.3 312C1885.4 312.9 1902.1 313.9 1918.6 314.6C1928.2 343.1 1910.9 379.7 1881.8 391C1858.9 400 1835.4 400 1812 393.1C1794.7 388 1781.8 377 1776 360.1C1770.6 344.3 1765.5 327.8 1764.4 311.3C1761.4 270.6 1760.3 229.5 1766.5 188.7C1767.6 181.9 1769.5 175.4 1771.6 168.8C1780 141.6 1798.3 124.9 1826.6 122.1C1842 120.6 1857.9 121.2 1873.1 123.8C1897.7 128.1 1910.8 145.8 1916.5 169C1919.1 179.9 1921 191.1 1921.4 202.2C1921.5 227.7 1921 253 1921 279.9ZM1863.5 244.8C1863.5 224.7 1863.7 205.8 1863.3 186.8C1863.3 182.3 1861.6 177.6 1859.9 173.3C1856.5 164.9 1849.4 162.6 1840.9 162.6C1832.4 162.6 1827 166.9 1824.9 174.6C1818.5 197.7 1820.6 221.3 1820.8 245C1836.1 244.8 1850 244.8 1863.5 244.8Z" fill="white"/>
<path d="M1264.6 76.2H1205.1V28H1382.7V75.9H1323.6V394H1264.7L1264.6 76.2Z" fill="white"/>
</g>
<defs>
<clipPath id="clip0">
<rect width="1921.3" height="423.7" fill="white"/>
</clipPath>
</defs>
</svg>
