<svg width="411" height="823" viewBox="0 0 411 823" fill="none" xmlns="http://www.w3.org/2000/svg">
<g clip-path="url(#clip0)">
<rect width="411" height="823" fill="#0B1C2C"/>
<path d="M45.2583 426.551L31 412.293L77.2963 366H105.809L45.2583 426.551ZM105.809 408.719H77.2963L66.6157 419.399L80.874 433.658" fill="#42A5F5" fill-opacity="0.8"/>
<path d="M66.6152 447.912L77.2958 458.593H105.809L80.8735 433.657" fill="#0D47A1"/>
<path d="M52.3906 433.665L66.6264 419.426L80.8623 433.661L66.6264 447.901L52.3906 433.665Z" fill="#42A5F5"/>
<path d="M66.627 447.901L80.8628 433.665L82.8499 435.652L68.6141 449.888L66.627 447.901Z" fill="url(#paint0_linear)"/>
<path d="M66.6152 447.912L87.7706 440.603L80.8735 433.654" fill="url(#paint1_linear)"/>
<path d="M131.614 395.183V405.783H128.437V381.061H142.87V384.1H131.614V392.213H141.765V395.183H131.614ZM148.755 381.061V405.783H145.579V381.061H148.755ZM167.127 405.783H164.089V403.435H163.951C163.467 404.264 162.719 404.954 161.706 405.506C160.717 406.059 159.681 406.335 158.599 406.335C156.527 406.335 154.927 405.748 153.8 404.574C152.695 403.377 152.142 401.685 152.142 399.499V388.864H155.319V399.292C155.388 402.054 156.78 403.435 159.497 403.435C160.763 403.435 161.821 402.928 162.673 401.916C163.525 400.88 163.951 399.648 163.951 398.221V388.864H167.127V405.783ZM177.347 406.059C175.966 406.059 174.815 405.633 173.894 404.781C172.997 403.93 172.536 402.744 172.513 401.225V391.765H169.544V388.864H172.513V383.685H175.69V388.864H179.833V391.765H175.69V400.189C175.69 401.317 175.908 402.088 176.346 402.503C176.783 402.894 177.278 403.09 177.83 403.09C178.084 403.09 178.325 403.067 178.555 403.021C178.809 402.951 179.039 402.871 179.246 402.779L180.247 405.61C179.419 405.909 178.452 406.059 177.347 406.059ZM189.553 406.059C188.172 406.059 187.021 405.633 186.1 404.781C185.202 403.93 184.742 402.744 184.719 401.225V391.765H181.75V388.864H184.719V383.685H187.896V388.864H192.039V391.765H187.896V400.189C187.896 401.317 188.114 402.088 188.552 402.503C188.989 402.894 189.484 403.09 190.036 403.09C190.289 403.09 190.531 403.067 190.761 403.021C191.015 402.951 191.245 402.871 191.452 402.779L192.453 405.61C191.625 405.909 190.658 406.059 189.553 406.059ZM202.143 406.335C199.657 406.335 197.608 405.483 195.997 403.78C194.386 402.077 193.58 399.925 193.58 397.324C193.58 394.745 194.363 392.605 195.928 390.901C197.493 389.175 199.496 388.312 201.936 388.312C204.444 388.312 206.436 389.129 207.909 390.763C209.405 392.375 210.153 394.642 210.153 397.565L210.118 397.91H196.825C196.872 399.568 197.424 400.903 198.483 401.916C199.542 402.928 200.808 403.435 202.281 403.435C204.306 403.435 205.895 402.422 207.046 400.396L209.877 401.778C209.117 403.205 208.058 404.321 206.7 405.127C205.365 405.932 203.846 406.335 202.143 406.335ZM197.067 395.286H206.769C206.677 394.112 206.194 393.146 205.319 392.386C204.468 391.604 203.317 391.212 201.866 391.212C200.67 391.212 199.634 391.58 198.759 392.317C197.907 393.054 197.343 394.043 197.067 395.286ZM215.889 405.783H212.713V388.864H215.751V391.627H215.889C216.211 390.729 216.867 389.969 217.857 389.348C218.87 388.703 219.86 388.381 220.827 388.381C221.747 388.381 222.53 388.519 223.174 388.795L222.208 391.868C221.816 391.707 221.195 391.627 220.343 391.627C219.146 391.627 218.099 392.11 217.201 393.077C216.326 394.043 215.889 395.171 215.889 396.46V405.783ZM232.704 405.783V381.061H240.266C244.041 381.061 247.068 382.201 249.346 384.479C251.648 386.758 252.799 389.739 252.799 393.422C252.799 397.128 251.648 400.12 249.346 402.399C247.068 404.655 244.041 405.783 240.266 405.783H232.704ZM235.881 384.1V402.744H240.266C243.143 402.744 245.41 401.927 247.068 400.293C248.725 398.636 249.554 396.345 249.554 393.422C249.554 390.522 248.725 388.243 247.068 386.586C245.41 384.928 243.143 384.1 240.266 384.1H235.881ZM257.992 400.604C257.992 401.432 258.337 402.123 259.028 402.675C259.742 403.228 260.57 403.504 261.514 403.504C262.849 403.504 264.034 403.009 265.07 402.019C266.129 401.029 266.659 399.867 266.659 398.532C265.669 397.749 264.288 397.358 262.515 397.358C261.226 397.358 260.144 397.669 259.27 398.29C258.418 398.912 257.992 399.683 257.992 400.604ZM262.101 388.312C264.449 388.312 266.302 388.945 267.66 390.211C269.018 391.454 269.697 393.169 269.697 395.355V405.783H266.659V403.435H266.52C265.208 405.368 263.459 406.335 261.272 406.335C259.408 406.335 257.843 405.783 256.577 404.678C255.334 403.573 254.712 402.192 254.712 400.535C254.712 398.785 255.368 397.393 256.68 396.357C258.015 395.321 259.788 394.803 261.997 394.803C263.885 394.803 265.439 395.148 266.659 395.839V395.114C266.659 394.009 266.221 393.077 265.347 392.317C264.472 391.534 263.448 391.143 262.274 391.143C260.501 391.143 259.097 391.891 258.061 393.387L255.265 391.627C256.807 389.417 259.086 388.312 262.101 388.312ZM287.72 388.864L277.12 413.241H273.84L277.776 404.712L270.802 388.864H274.255L279.296 401.018H279.365L284.267 388.864H287.72ZM300.418 405.783H297.242V381.061H300.418V405.783ZM304.504 388.864H307.542V391.212H307.68C308.164 390.384 308.9 389.693 309.89 389.141C310.903 388.588 311.95 388.312 313.032 388.312C315.104 388.312 316.692 388.91 317.797 390.107C318.925 391.281 319.489 392.962 319.489 395.148V405.783H316.312V395.355C316.243 392.593 314.851 391.212 312.134 391.212C310.868 391.212 309.81 391.73 308.958 392.766C308.106 393.779 307.68 394.999 307.68 396.426V405.783H304.504V388.864ZM330.468 403.435C332.033 403.435 333.311 402.871 334.301 401.743C335.337 400.615 335.854 399.142 335.854 397.324C335.854 395.551 335.337 394.089 334.301 392.939C333.288 391.788 332.01 391.212 330.468 391.212C328.949 391.212 327.672 391.788 326.636 392.939C325.6 394.089 325.082 395.551 325.082 397.324C325.082 399.119 325.6 400.581 326.636 401.708C327.672 402.859 328.949 403.435 330.468 403.435ZM329.95 406.335C327.741 406.335 325.842 405.46 324.253 403.711C322.688 401.939 321.905 399.809 321.905 397.324C321.905 394.838 322.688 392.708 324.253 390.936C325.842 389.187 327.741 388.312 329.95 388.312C331.193 388.312 332.321 388.577 333.334 389.106C334.37 389.635 335.164 390.338 335.716 391.212H335.854L335.716 388.864V381.061H338.893V405.783H335.854V403.435H335.716C335.164 404.31 334.37 405.012 333.334 405.541C332.321 406.07 331.193 406.335 329.95 406.335ZM346.529 383.029C346.529 383.651 346.311 384.18 345.873 384.617C345.436 385.055 344.907 385.273 344.285 385.273C343.664 385.273 343.134 385.055 342.697 384.617C342.259 384.18 342.041 383.651 342.041 383.029C342.041 382.408 342.259 381.878 342.697 381.441C343.134 381.004 343.664 380.785 344.285 380.785C344.907 380.785 345.436 381.004 345.873 381.441C346.311 381.878 346.529 382.408 346.529 383.029ZM345.873 388.864V405.783H342.697V388.864H345.873ZM351.807 400.604C351.807 401.432 352.152 402.123 352.842 402.675C353.556 403.228 354.385 403.504 355.328 403.504C356.663 403.504 357.849 403.009 358.885 402.019C359.944 401.029 360.473 399.867 360.473 398.532C359.483 397.749 358.102 397.358 356.33 397.358C355.041 397.358 353.959 397.669 353.084 398.29C352.232 398.912 351.807 399.683 351.807 400.604ZM355.915 388.312C358.263 388.312 360.116 388.945 361.474 390.211C362.832 391.454 363.511 393.169 363.511 395.355V405.783H360.473V403.435H360.335C359.023 405.368 357.273 406.335 355.087 406.335C353.222 406.335 351.657 405.783 350.391 404.678C349.148 403.573 348.527 402.192 348.527 400.535C348.527 398.785 349.183 397.393 350.495 396.357C351.83 395.321 353.602 394.803 355.812 394.803C357.699 394.803 359.253 395.148 360.473 395.839V395.114C360.473 394.009 360.036 393.077 359.161 392.317C358.286 391.534 357.262 391.143 356.088 391.143C354.316 391.143 352.911 391.891 351.876 393.387L349.079 391.627C350.621 389.417 352.9 388.312 355.915 388.312Z" fill="white"/>
<path d="M132.346 437.026C130.948 437.026 129.74 436.646 128.721 435.887C127.702 435.127 126.986 434.074 126.572 432.727L128.825 431.795C129.412 433.763 130.585 434.747 132.346 434.747C133.313 434.747 134.09 434.411 134.677 433.737C135.281 433.047 135.583 432.158 135.583 431.07V418.071H137.966V430.863C137.966 432.779 137.456 434.29 136.438 435.395C135.437 436.482 134.073 437.026 132.346 437.026ZM151.604 436.612H149.325V434.851H149.221C148.859 435.472 148.298 435.99 147.538 436.405C146.796 436.819 146.019 437.026 145.207 437.026C143.654 437.026 142.454 436.586 141.608 435.705C140.779 434.808 140.365 433.539 140.365 431.899V423.923H142.747V431.743C142.799 433.815 143.843 434.851 145.881 434.851C146.83 434.851 147.624 434.471 148.263 433.712C148.902 432.935 149.221 432.011 149.221 430.941V423.923H151.604V436.612ZM154.245 423.923H156.523V425.684H156.627C156.99 425.062 157.542 424.545 158.284 424.13C159.044 423.716 159.829 423.509 160.641 423.509C162.195 423.509 163.386 423.958 164.214 424.855C165.06 425.736 165.483 426.996 165.483 428.636V436.612H163.101V428.791C163.049 426.72 162.005 425.684 159.968 425.684C159.018 425.684 158.224 426.072 157.585 426.849C156.946 427.609 156.627 428.524 156.627 429.594V436.612H154.245V423.923ZM173.718 437.026C171.853 437.026 170.317 436.387 169.108 435.11C167.9 433.832 167.296 432.218 167.296 430.267C167.296 428.334 167.883 426.728 169.057 425.451C170.231 424.156 171.733 423.509 173.562 423.509C175.444 423.509 176.938 424.122 178.042 425.347C179.165 426.556 179.726 428.256 179.726 430.449L179.7 430.708H169.73C169.764 431.951 170.179 432.952 170.973 433.712C171.767 434.471 172.717 434.851 173.821 434.851C175.341 434.851 176.532 434.091 177.395 432.572L179.518 433.608C178.949 434.678 178.155 435.516 177.136 436.12C176.135 436.724 174.995 437.026 173.718 437.026ZM169.911 428.74H177.188C177.119 427.859 176.756 427.134 176.1 426.564C175.461 425.977 174.598 425.684 173.511 425.684C172.613 425.684 171.836 425.96 171.18 426.513C170.541 427.065 170.118 427.807 169.911 428.74ZM197.952 434.333V436.612H186.662V434.229L191.245 429.594C192.782 428.023 193.844 426.849 194.431 426.072C195.018 425.278 195.311 424.45 195.311 423.586C195.311 422.81 195.009 422.145 194.405 421.592C193.8 421.04 193.024 420.764 192.074 420.764C191.263 420.764 190.564 421.005 189.977 421.489C189.39 421.972 189.01 422.559 188.837 423.25L186.662 422.369C187.007 421.282 187.672 420.367 188.656 419.624C189.64 418.865 190.797 418.485 192.126 418.485C193.731 418.485 195.069 418.977 196.14 419.961C197.21 420.945 197.745 422.154 197.745 423.586C197.745 425.295 196.804 427.143 194.923 429.128L189.743 434.333H197.952ZM211.328 421.333L202.731 437.026L200.607 435.939L208.816 421.178H199.856L199.908 418.899H211.328V421.333ZM211.512 439.512L210.398 438.787L211.797 436.612C211.434 436.543 211.123 436.361 210.864 436.068C210.623 435.775 210.502 435.421 210.502 435.006C210.502 434.506 210.674 434.091 211.02 433.763C211.365 433.418 211.779 433.245 212.263 433.245C212.763 433.245 213.178 433.418 213.506 433.763C213.851 434.091 214.024 434.506 214.024 435.006C214.024 435.472 213.851 435.982 213.506 436.534L211.512 439.512ZM232.776 434.333V436.612H221.485V434.229L226.069 429.594C227.605 428.023 228.667 426.849 229.254 426.072C229.841 425.278 230.134 424.45 230.134 423.586C230.134 422.81 229.832 422.145 229.228 421.592C228.624 421.04 227.847 420.764 226.897 420.764C226.086 420.764 225.387 421.005 224.8 421.489C224.213 421.972 223.833 422.559 223.66 423.25L221.485 422.369C221.831 421.282 222.495 420.367 223.479 419.624C224.463 418.865 225.62 418.485 226.949 418.485C228.555 418.485 229.893 418.977 230.963 419.961C232.033 420.945 232.569 422.154 232.569 423.586C232.569 425.295 231.628 427.143 229.746 429.128L224.567 434.333H232.776ZM234.783 427.756C234.783 425.062 235.448 422.844 236.777 421.1C238.107 419.357 239.816 418.485 241.905 418.485C243.994 418.485 245.703 419.365 247.032 421.126C248.361 422.87 249.026 425.08 249.026 427.756C249.026 430.414 248.361 432.633 247.032 434.411C245.703 436.154 243.994 437.026 241.905 437.026C239.816 437.026 238.107 436.154 236.777 434.411C235.448 432.633 234.783 430.414 234.783 427.756ZM246.592 427.756C246.592 425.718 246.16 424.044 245.297 422.732C244.451 421.42 243.32 420.764 241.905 420.764C240.489 420.764 239.358 421.42 238.512 422.732C237.649 424.044 237.218 425.718 237.218 427.756C237.218 429.793 237.649 431.476 238.512 432.805C239.358 434.1 240.489 434.747 241.905 434.747C243.32 434.747 244.451 434.091 245.297 432.779C246.16 431.45 246.592 429.775 246.592 427.756ZM261.972 434.333V436.612H250.681V434.229L255.265 429.594C256.801 428.023 257.863 426.849 258.45 426.072C259.037 425.278 259.33 424.45 259.33 423.586C259.33 422.81 259.028 422.145 258.424 421.592C257.82 421.04 257.043 420.764 256.094 420.764C255.282 420.764 254.583 421.005 253.996 421.489C253.409 421.972 253.029 422.559 252.857 423.25L250.681 422.369C251.027 421.282 251.691 420.367 252.675 419.624C253.659 418.865 254.816 418.485 256.145 418.485C257.751 418.485 259.089 418.977 260.159 419.961C261.229 420.945 261.765 422.154 261.765 423.586C261.765 425.295 260.824 427.143 258.942 429.128L253.763 434.333H261.972ZM263.98 427.756C263.98 425.062 264.644 422.844 265.973 421.1C267.303 419.357 269.012 418.485 271.101 418.485C273.19 418.485 274.899 419.365 276.228 421.126C277.557 422.87 278.222 425.08 278.222 427.756C278.222 430.414 277.557 432.633 276.228 434.411C274.899 436.154 273.19 437.026 271.101 437.026C269.012 437.026 267.303 436.154 265.973 434.411C264.644 432.633 263.98 430.414 263.98 427.756ZM275.788 427.756C275.788 425.718 275.356 424.044 274.493 422.732C273.647 421.42 272.516 420.764 271.101 420.764C269.685 420.764 268.554 421.42 267.708 422.732C266.845 424.044 266.414 425.718 266.414 427.756C266.414 429.793 266.845 431.476 267.708 432.805C268.554 434.1 269.685 434.747 271.101 434.747C272.516 434.747 273.647 434.091 274.493 432.779C275.356 431.45 275.788 429.775 275.788 427.756Z" fill="white"/>
<rect x="23.74" y="66.74" width="65.1868" height="65.1868" stroke="#FDFDFD" stroke-opacity="0.4" stroke-width="1.48"/>
<rect x="38.406" y="84.0737" width="65.1868" height="65.1868" stroke="#FDFDFD" stroke-opacity="0.4" stroke-width="1.48"/>
<rect x="57.073" y="100.073" width="65.1868" height="65.1868" stroke="#FDFDFD" stroke-opacity="0.4" stroke-width="1.48"/>
<rect x="107.5" y="231.5" width="77" height="77" rx="13.5" stroke="white" stroke-opacity="0.4" stroke-width="3"/>
<path d="M132.466 283.534L124.647 275.715C123.721 274.762 123.143 273.418 123.143 272.106C123.143 271.498 123.487 270.547 123.744 270L130.962 254.963L132.466 283.534Z" stroke="white" stroke-opacity="0.4" stroke-width="2"/>
<path d="M159.234 256.466L151.415 248.646C150.732 247.961 149.309 247.143 148.106 247.143C147.072 247.143 146.058 247.35 145.4 247.744L130.963 254.962L159.234 256.466Z" stroke="white" stroke-opacity="0.4" stroke-width="2"/>
<path d="M141.79 292.857H160.737V284.737L145.649 284.737L133.669 284.737L141.79 292.857Z" stroke="white" stroke-opacity="0.4" stroke-width="2"/>
<path d="M130.963 279.323C130.963 281.736 131.266 282.328 132.467 283.534L133.67 284.737H160.738L147.505 269.7L130.963 254.963V279.323Z" stroke="white" stroke-opacity="0.4" stroke-width="2"/>
<path d="M155.023 254.963H130.963L160.738 284.737H168.858V266.09L159.234 256.466C157.882 255.109 156.682 254.963 155.023 254.963Z" stroke="white" stroke-opacity="0.4" stroke-width="2"/>
<path opacity="0.2" d="M159.234 256.466C157.743 254.976 156.52 254.963 154.723 254.963H130.963L131.264 255.263H154.723C155.622 255.263 157.886 255.113 159.234 256.466Z" stroke="white" stroke-opacity="0.4" stroke-width="2"/>
<mask id="path-18-inside-1" fill="white">
<path d="M320.916 175.72C317.932 175.72 315.504 173.29 315.504 170.306C315.504 167.321 317.932 164.893 320.916 164.893C323.902 164.893 326.33 167.32 326.33 170.306C326.33 173.291 323.902 175.72 320.916 175.72ZM261.084 175.72C258.099 175.72 255.671 173.29 255.671 170.306C255.671 167.321 258.098 164.893 261.084 164.893C264.068 164.893 266.496 167.32 266.496 170.306C266.496 173.291 264.069 175.72 261.084 175.72ZM322.858 143.112L333.677 124.375C333.975 123.858 334.055 123.244 333.901 122.667C333.746 122.091 333.369 121.599 332.853 121.3C332.336 121.003 331.722 120.922 331.145 121.077C330.569 121.231 330.077 121.608 329.778 122.124L318.824 141.099C310.447 137.276 301.039 135.146 291 135.146C280.961 135.146 271.553 137.276 263.176 141.099L252.222 122.124C251.923 121.608 251.431 121.231 250.855 121.077C250.278 120.922 249.664 121.003 249.147 121.3C248.63 121.599 248.253 122.091 248.099 122.667C247.944 123.244 248.025 123.858 248.323 124.375L259.142 143.112C240.565 153.216 227.859 172.024 226 194.243H356C354.14 172.024 341.434 153.216 322.858 143.112"/>
</mask>
<path d="M333.677 124.375L335.409 125.375L335.41 125.373L333.677 124.375ZM332.853 121.3L333.855 119.569L333.851 119.567L332.853 121.3ZM329.778 122.124L328.048 121.122L328.046 121.124L329.778 122.124ZM318.824 141.099L317.994 142.918L319.648 143.673L320.556 142.099L318.824 141.099ZM263.176 141.099L261.444 142.099L262.353 143.673L264.006 142.918L263.176 141.099ZM252.222 122.124L253.954 121.124L253.952 121.122L252.222 122.124ZM249.147 121.3L248.149 119.567L248.146 119.569L249.147 121.3ZM248.323 124.375L246.591 125.374L246.591 125.375L248.323 124.375ZM259.142 143.112L260.098 144.869L261.9 143.889L260.874 142.112L259.142 143.112ZM226 194.243L224.007 194.077L223.826 196.243H226V194.243ZM356 194.243V196.243H358.174L357.993 194.077L356 194.243ZM320.916 173.72C319.037 173.72 317.504 172.187 317.504 170.306H313.504C313.504 174.394 316.826 177.72 320.916 177.72V173.72ZM317.504 170.306C317.504 168.425 319.036 166.893 320.916 166.893V162.893C316.827 162.893 313.504 166.216 313.504 170.306H317.504ZM320.916 166.893C322.797 166.893 324.33 168.425 324.33 170.306H328.33C328.33 166.215 325.006 162.893 320.916 162.893V166.893ZM324.33 170.306C324.33 172.187 322.797 173.72 320.916 173.72V177.72C325.007 177.72 328.33 174.395 328.33 170.306H324.33ZM261.084 173.72C259.204 173.72 257.671 172.187 257.671 170.306H253.671C253.671 174.394 256.993 177.72 261.084 177.72V173.72ZM257.671 170.306C257.671 168.425 259.203 166.893 261.084 166.893V162.893C256.994 162.893 253.671 166.216 253.671 170.306H257.671ZM261.084 166.893C262.964 166.893 264.496 168.425 264.496 170.306H268.496C268.496 166.216 265.173 162.893 261.084 162.893V166.893ZM264.496 170.306C264.496 172.187 262.963 173.72 261.084 173.72V177.72C265.174 177.72 268.496 174.395 268.496 170.306H264.496ZM324.59 144.113L335.409 125.375L331.945 123.375L321.126 142.112L324.59 144.113ZM335.41 125.373C335.972 124.397 336.124 123.238 335.832 122.15L331.969 123.185C331.986 123.25 331.977 123.319 331.944 123.377L335.41 125.373ZM335.832 122.15C335.541 121.062 334.83 120.134 333.855 119.569L331.851 123.031C331.909 123.065 331.951 123.12 331.969 123.185L335.832 122.15ZM333.851 119.567C332.875 119.005 331.715 118.853 330.628 119.145L331.663 123.009C331.728 122.991 331.797 123 331.855 123.034L333.851 119.567ZM330.628 119.145C329.54 119.436 328.612 120.147 328.048 121.122L331.509 123.127C331.543 123.068 331.598 123.026 331.663 123.009L330.628 119.145ZM328.046 121.124L317.092 140.099L320.556 142.099L331.51 123.124L328.046 121.124ZM319.655 139.279C311.016 135.337 301.325 133.146 291 133.146V137.146C300.753 137.146 309.878 139.215 317.994 142.918L319.655 139.279ZM291 133.146C280.675 133.146 270.984 135.337 262.346 139.279L264.006 142.918C272.122 139.215 281.247 137.146 291 137.146V133.146ZM264.908 140.099L253.954 121.124L250.49 123.124L261.444 142.099L264.908 140.099ZM253.952 121.122C253.388 120.147 252.46 119.436 251.372 119.145L250.337 123.009C250.402 123.026 250.457 123.068 250.491 123.127L253.952 121.122ZM251.372 119.145C250.285 118.853 249.125 119.005 248.149 119.567L250.145 123.034C250.203 123 250.272 122.991 250.337 123.009L251.372 119.145ZM248.146 119.569C247.171 120.133 246.459 121.061 246.167 122.15L250.031 123.185C250.048 123.12 250.09 123.065 250.148 123.032L248.146 119.569ZM246.167 122.15C245.875 123.238 246.028 124.398 246.591 125.374L250.056 123.376C250.022 123.318 250.013 123.249 250.031 123.185L246.167 122.15ZM246.591 125.375L257.41 144.113L260.874 142.112L250.055 123.375L246.591 125.375ZM258.186 141.355C239.023 151.778 225.922 171.179 224.007 194.077L227.993 194.41C229.795 172.868 242.106 154.655 260.098 144.869L258.186 141.355ZM226 196.243H356V192.243H226V196.243ZM357.993 194.077C356.076 171.18 342.975 151.778 323.814 141.355L321.902 144.869C339.893 154.655 352.203 172.868 354.007 194.41L357.993 194.077Z" fill="white" fill-opacity="0.5" mask="url(#path-18-inside-1)"/>
<rect x="328" y="275" width="70" height="70" rx="10" stroke="white" stroke-opacity="0.5" stroke-width="2"/>
<circle cx="363" cy="310" r="25.7647" stroke="white" stroke-opacity="0.5" stroke-width="2"/>
<path d="M345.021 293.481H380.978V326.519H345.021V293.481Z" stroke="white" stroke-opacity="0.5" stroke-width="2"/>
<path d="M380.278 293.481L362.768 324.955L345.702 293.481H380.278Z" stroke="white" stroke-opacity="0.5" stroke-width="2"/>
<rect x="-17.5" y="518.5" width="97" height="194.222" rx="15.5" stroke="white" stroke-opacity="0.5" stroke-width="3"/>
<rect x="14.3335" y="528.333" width="33.3333" height="3.66667" rx="1.83333" fill="white" fill-opacity="0.5"/>
<rect x="128" y="630" width="170" height="25.5" stroke="white" stroke-opacity="0.5" stroke-width="2"/>
<line x1="140.599" y1="655.5" x2="140.599" y2="639.35" stroke="white" stroke-opacity="0.5" stroke-width="2"/>
<line x1="152.499" y1="655.5" x2="152.499" y2="647.425" stroke="white" stroke-opacity="0.5" stroke-width="2"/>
<line x1="164.399" y1="655.5" x2="164.399" y2="639.35" stroke="white" stroke-opacity="0.5" stroke-width="2"/>
<line x1="176.299" y1="655.5" x2="176.299" y2="647.425" stroke="white" stroke-opacity="0.5" stroke-width="2"/>
<line x1="188.2" y1="655.5" x2="188.2" y2="639.35" stroke="white" stroke-opacity="0.5" stroke-width="2"/>
<line x1="200.099" y1="655.5" x2="200.099" y2="647.425" stroke="white" stroke-opacity="0.5" stroke-width="2"/>
<line x1="211.999" y1="655.5" x2="211.999" y2="639.35" stroke="white" stroke-opacity="0.5" stroke-width="2"/>
<line x1="223.899" y1="655.5" x2="223.899" y2="647.425" stroke="white" stroke-opacity="0.5" stroke-width="2"/>
<line x1="235.799" y1="655.5" x2="235.799" y2="639.35" stroke="white" stroke-opacity="0.5" stroke-width="2"/>
<line x1="247.7" y1="655.5" x2="247.7" y2="647.425" stroke="white" stroke-opacity="0.5" stroke-width="2"/>
<line x1="259.599" y1="655.5" x2="259.599" y2="639.35" stroke="white" stroke-opacity="0.5" stroke-width="2"/>
<line x1="283.399" y1="655.5" x2="283.399" y2="639.35" stroke="white" stroke-opacity="0.5" stroke-width="2"/>
<line x1="271.499" y1="655.5" x2="271.499" y2="647.425" stroke="white" stroke-opacity="0.5" stroke-width="2"/>
<circle cx="321" cy="797" r="83.5" stroke="white" stroke-opacity="0.5" stroke-width="3"/>
<circle cx="321" cy="797" r="63.8846" stroke="white" stroke-opacity="0.5" stroke-width="3"/>
<circle cx="321" cy="797" r="44.2692" stroke="white" stroke-opacity="0.5" stroke-width="3"/>
<circle cx="320.347" cy="796.346" r="27.9231" stroke="white" stroke-opacity="0.5" stroke-width="3"/>
<g opacity="0.4">
<rect x="291" y="466" width="176" height="124.571" rx="8" stroke="white" stroke-width="4"/>
<path d="M289 484C289 472.954 297.954 464 309 464H449C460.046 464 469 472.954 469 484V484.314H289V484Z" fill="white"/>
<circle cx="297.229" cy="474.029" r="2.57143" fill="#F10909"/>
<circle cx="306.486" cy="474.029" r="2.57143" fill="#C4C4C4"/>
<circle cx="315.742" cy="474.029" r="2.57143" fill="#56C400"/>
</g>
</g>
<defs>
<linearGradient id="paint0_linear" x1="73.7476" y1="440.78" x2="75.7349" y2="442.768" gradientUnits="userSpaceOnUse">
<stop offset="0.2" stop-opacity="0.15"/>
<stop offset="0.85" stop-color="#616161" stop-opacity="0.01"/>
</linearGradient>
<linearGradient id="paint1_linear" x1="66.6203" y1="440.783" x2="87.7753" y2="440.783" gradientUnits="userSpaceOnUse">
<stop offset="0.2" stop-opacity="0.55"/>
<stop offset="0.85" stop-color="#616161" stop-opacity="0.01"/>
</linearGradient>
<clipPath id="clip0">
<rect width="411" height="823" fill="white"/>
</clipPath>
</defs>
</svg>
